<svg xmlns="http://www.w3.org/2000/svg" xmlns:xlink="http://www.w3.org/1999/xlink" xmlns:lucid="lucid" width="3518.39" height="2790.57"><g transform="translate(898.1848997630048 -269.6666666666667)" lucid:page-tab-id="0_0"><path d="M610 270.67c16.57 0 30 13.43 30 30 0 16.56-13.43 30-30 30H392.67c-16.57 0-30-13.44-30-30 0-16.57 13.43-30 30-30z" stroke="#000" stroke-width="2" fill="#fff"/><use xlink:href="#a" transform="matrix(1,0,0,1,376.53333333333336,273.6666666666667) translate(92.3095703125 35.3125)"/><path d="M501.33 333.17v85.67" stroke="#3a414a" stroke-width="3" stroke-linejoin="round" fill="none"/><path d="M502.8 333.2h-2.94v-1.53h2.95z" stroke="#3a414a" stroke-width=".05" fill="#3a414a"/><path d="M501.33 433.33l-7.5-13h15z" stroke="#3a414a" stroke-width="3" fill="#3a414a"/><path d="M308 443.13a7.8 7.8 0 0 1 7.56-5.8H744a4.6 4.6 0 0 1 4.45 5.8l-53.8 201.74a7.8 7.8 0 0 1-7.54 5.8H258.68a4.6 4.6 0 0 1-4.46-5.8z" stroke="#000" stroke-width="2" fill="#aee9aa" fill-opacity=".96"/><use xlink:href="#b" transform="matrix(1,0,0,1,277.5333333333334,448) translate(142.87267578125 31.1875)"/><use xlink:href="#c" transform="matrix(1,0,0,1,277.5333333333334,448) translate(219.56505859375 31.1875)"/><use xlink:href="#d" transform="matrix(1,0,0,1,277.5333333333334,448) translate(257.95568359375 31.1875)"/><use xlink:href="#e" transform="matrix(1,0,0,1,277.5333333333334,448) translate(134.59728515625 68.93828124999999)"/><use xlink:href="#f" transform="matrix(1,0,0,1,277.5333333333334,448) translate(161.96837890625 68.93828124999999)"/><use xlink:href="#g" transform="matrix(1,0,0,1,277.5333333333334,448) translate(223.24865234375 68.93828124999999)"/><use xlink:href="#h" transform="matrix(1,0,0,1,277.5333333333334,448) translate(134.72814453125 106.68906249999999)"/><use xlink:href="#f" transform="matrix(1,0,0,1,277.5333333333334,448) translate(167.38048828125 106.68906249999999)"/><use xlink:href="#i" transform="matrix(1,0,0,1,277.5333333333334,448) translate(228.66076171875 106.68906249999999)"/><use xlink:href="#j" transform="matrix(1,0,0,1,277.5333333333334,448) translate(109.10986328125 144.43984375)"/><use xlink:href="#f" transform="matrix(1,0,0,1,277.5333333333334,448) translate(141.96533203125 144.43984375)"/><use xlink:href="#k" transform="matrix(1,0,0,1,277.5333333333334,448) translate(203.24560546875 144.43984375)"/><use xlink:href="#l" transform="matrix(1,0,0,1,277.5333333333334,448) translate(167.3515625 182.19062499999998)"/><use xlink:href="#m" transform="matrix(1,0,0,1,277.5333333333334,448) translate(200.943359375 182.19062499999998)"/><path d="M501.33 653.17v87.67" stroke="#3a414a" stroke-width="3" stroke-linejoin="round" fill="none"/><path d="M502.8 653.2h-2.94v-1.53h2.95z" stroke="#3a414a" stroke-width=".05" fill="#3a414a"/><path d="M501.33 755.33l-7.5-13h15z" stroke="#3a414a" stroke-width="3" fill="#3a414a"/><path d="M451.8 765.13a7.8 7.8 0 0 1 7.53-5.8h116a4.6 4.6 0 0 1 4.46 5.8l-28.92 108.4a7.8 7.8 0 0 1-7.55 5.8h-116a4.6 4.6 0 0 1-4.45-5.8z" stroke="#000" stroke-width="2" fill="#e39b9b"/><use xlink:href="#n" transform="matrix(1,0,0,1,429.33333333333337,765.3333333333334) translate(30.199335937499995 62.3125)"/><path d="M-497.4 1238.1a7.8 7.8 0 0 1 7.55-5.8h256.62a4.6 4.6 0 0 1 4.45 5.8l-29.62 111.07a7.8 7.8 0 0 1-7.54 5.8h-256.63a4.6 4.6 0 0 1-4.45-5.8z" stroke="#000" stroke-width="2" fill="#aee9aa" fill-opacity=".96"/><use xlink:href="#o" transform="matrix(1,0,0,1,-513.497982718424,1238.4375151952872) translate(30.418085937500003 63.34375)"/><use xlink:href="#c" transform="matrix(1,0,0,1,-513.497982718424,1238.4375151952872) translate(95.03722656250001 63.34375)"/><use xlink:href="#p" transform="matrix(1,0,0,1,-513.497982718424,1238.4375151952872) translate(133.4278515625 63.34375)"/><path d="M-377.9 1357.47v60.34" stroke="#3a414a" stroke-width="3" stroke-linejoin="round" fill="none"/><path d="M-376.42 1357.5h-2.95v-1.53h2.95z" stroke="#3a414a" stroke-width=".05" fill="#3a414a"/><path d="M-377.9 1432.3l-7.5-13h15z" stroke="#3a414a" stroke-width="3" fill="#3a414a"/><path d="M-470.3 1442.1a7.8 7.8 0 0 1 7.56-5.8h204.18a4.6 4.6 0 0 1 4.45 5.8l-31.4 117.74a7.8 7.8 0 0 1-7.55 5.8h-204.18a4.6 4.6 0 0 1-4.45-5.8z" stroke="#000" stroke-width="2" fill="#aee9aa" fill-opacity=".96"/><use xlink:href="#q" transform="matrix(1,0,0,1,-490.69798271842416,1442.7708485286207) translate(29.433222656250003 69.0625)"/><use xlink:href="#r" transform="matrix(1,0,0,1,-490.69798271842416,1442.7708485286207) translate(128.43126953125 69.0625)"/><path d="M-377.9 1568.14v53" stroke="#3a414a" stroke-width="3" stroke-linejoin="round" fill="none"/><path d="M-376.42 1568.18h-2.95v-1.54h2.95z" stroke="#3a414a" stroke-width=".05" fill="#3a414a"/><path d="M-377.9 1635.64l-7.5-13h15z" stroke="#3a414a" stroke-width="3" fill="#3a414a"/><path d="M-427.44 1645.43a7.8 7.8 0 0 1 7.54-5.8h116a4.6 4.6 0 0 1 4.46 5.8l-28.9 108.4a7.8 7.8 0 0 1-7.56 5.8h-116a4.6 4.6 0 0 1-4.45-5.8z" stroke="#000" stroke-width="2" fill="#e39b9b"/><use xlink:href="#s" transform="matrix(1,0,0,1,-449.89798271842415,1645.6375151952873) translate(42.177363281249995 62.3125)"/><path d="M-897.18 2448.46a6 6 0 0 1 6-6h341.33a6 6 0 0 1 6 6v76a6 6 0 0 1-6 6h-341.33a6 6 0 0 1-6-6z" stroke="#000" stroke-width="2" fill="#fff"/><use xlink:href="#t" transform="matrix(1,0,0,1,-879.5182330963381,2446.858688073983) translate(26.283203125 50.1875)"/><use xlink:href="#u" transform="matrix(1,0,0,1,-879.5182330963381,2446.858688073983) translate(51.5341796875 50.1875)"/><use xlink:href="#v" transform="matrix(1,0,0,1,-879.5182330963381,2446.858688073983) translate(76.048828125 50.1875)"/><use xlink:href="#w" transform="matrix(1,0,0,1,-879.5182330963381,2446.858688073983) translate(152.5 50.1875)"/><use xlink:href="#x" transform="matrix(1,0,0,1,-879.5182330963381,2446.858688073983) translate(172.837890625 50.1875)"/><use xlink:href="#y" transform="matrix(1,0,0,1,-879.5182330963381,2446.858688073983) translate(259.1787109375 50.1875)"/><use xlink:href="#z" transform="matrix(1,0,0,1,-879.5182330963381,2446.858688073983) translate(275.8603515625 50.1875)"/><path d="M-720.46 2532.96l.24 6.63.7 6.1 1.02 5.17 1.46 5.18 6.93 20.24.4 2.02" stroke="#3a414a" stroke-width="3" stroke-linejoin="round" fill="none"/><path d="M-719 2532.94l-2.94.1-.05-1.58h2.96z" stroke="#3a414a" stroke-width=".05" fill="#3a414a"/><path d="M-708.37 2592.72l-8.67-12.24 14.93-1.4z" stroke="#3a414a" stroke-width="3" fill="#3a414a"/><path d="M-817.3 2602.5a7.8 7.8 0 0 1 7.55-5.8h233.42a4.6 4.6 0 0 1 4.46 5.8l-27 101.3a7.8 7.8 0 0 1-7.56 5.8h-233.42a4.6 4.6 0 0 1-4.46-5.8z" stroke="#000" stroke-width="2" fill="#aee9aa" fill-opacity=".96"/><use xlink:href="#A" transform="matrix(1,0,0,1,-832.0752646414495,2602.3463098005986) translate(29.988398437500003 60.25)"/><use xlink:href="#f" transform="matrix(1,0,0,1,-832.0752646414495,2602.3463098005986) translate(71.33703125 60.25)"/><use xlink:href="#B" transform="matrix(1,0,0,1,-832.0752646414495,2602.3463098005986) translate(132.6173046875 60.25)"/><use xlink:href="#C" transform="matrix(1,0,0,1,-832.0752646414495,2602.3463098005986) translate(176.301875 60.25)"/><use xlink:href="#D" transform="matrix(1,0,0,1,-832.0752646414495,2602.3463098005986) translate(201.083125 60.25)"/><path d="M603.63 1357.47l.9 48.98 2.77 42.15 3.7 53.4.63 33" stroke="#3a414a" stroke-width="3" stroke-linejoin="round" fill="none"/><path d="M605.1 1357.48l-2.94.06-.03-1.57h2.95z" stroke="#3a414a" stroke-width=".05" fill="#3a414a"/><path d="M611.9 1549.48l-7.74-12.85 15-.28z" stroke="#3a414a" stroke-width="3" fill="#3a414a"/><path d="M519.56 1559.27a7.8 7.8 0 0 1 7.55-5.8h204.2a4.6 4.6 0 0 1 4.44 5.8L704.34 1677a7.8 7.8 0 0 1-7.54 5.8H492.62a4.6 4.6 0 0 1-4.45-5.8z" stroke="#000" stroke-width="2" fill="#aee9aa" fill-opacity=".96"/><use xlink:href="#E" transform="matrix(1,0,0,1,499.152484722598,1559.9429459321796) translate(28.163691406250003 69.0625)"/><use xlink:href="#F" transform="matrix(1,0,0,1,499.152484722598,1559.9429459321796) translate(127.16173828125001 69.0625)"/><path d="M562.4 1762.6a7.8 7.8 0 0 1 7.55-5.8h116a4.6 4.6 0 0 1 4.46 5.8L661.5 1871a7.8 7.8 0 0 1-7.55 5.8h-116a4.6 4.6 0 0 1-4.45-5.8z" stroke="#000" stroke-width="2" fill="#e39b9b"/><use xlink:href="#G" transform="matrix(1,0,0,1,539.952484722598,1762.8096125988463) translate(40.907832031249995 62.3125)"/><path d="M150.22 2168.23a6 6 0 0 1 6-6h341.34a6 6 0 0 1 6 6v76a6 6 0 0 1-6 6H156.22a6 6 0 0 1-6-6z" stroke="#000" stroke-width="2" fill="#fff"/><use xlink:href="#t" transform="matrix(1,0,0,1,167.89203656975417,2166.633434464636) translate(63.34716796875 50.1875)"/><use xlink:href="#u" transform="matrix(1,0,0,1,167.89203656975417,2166.633434464636) translate(88.59814453125 50.1875)"/><use xlink:href="#H" transform="matrix(1,0,0,1,167.89203656975417,2166.633434464636) translate(113.11279296875 50.1875)"/><use xlink:href="#w" transform="matrix(1,0,0,1,167.89203656975417,2166.633434464636) translate(144.01318359375 50.1875)"/><use xlink:href="#I" transform="matrix(1,0,0,1,167.89203656975417,2166.633434464636) translate(164.35107421875 50.1875)"/><path d="M216.72 2324.5a7.8 7.8 0 0 1 7.55-5.8h234a4.6 4.6 0 0 1 4.47 5.8l-26.43 99.07a7.8 7.8 0 0 1-7.53 5.8h-234a4.6 4.6 0 0 1-4.47-5.8z" stroke="#000" stroke-width="2" fill="#aee9aa" fill-opacity=".96"/><use xlink:href="#A" transform="matrix(1,0,0,1,202.53172134239728,2324.2223656492743) translate(29.488398437500003 59.5625)"/><use xlink:href="#f" transform="matrix(1,0,0,1,202.53172134239728,2324.2223656492743) translate(70.83703125 59.5625)"/><use xlink:href="#B" transform="matrix(1,0,0,1,202.53172134239728,2324.2223656492743) translate(132.1173046875 59.5625)"/><use xlink:href="#C" transform="matrix(1,0,0,1,202.53172134239728,2324.2223656492743) translate(175.801875 59.5625)"/><use xlink:href="#D" transform="matrix(1,0,0,1,202.53172134239728,2324.2223656492743) translate(200.583125 59.5625)"/><path d="M612.03 1879.3l.32 6.45.9 5.64 1.56 5.57 3.3 10.04" stroke="#3a414a" stroke-width="3" stroke-linejoin="round" fill="none"/><path d="M613.5 1879.27l-2.94.15-.08-1.6h2.95z" stroke="#3a414a" stroke-width=".05" fill="#3a414a"/><path d="M620.15 1921.26l-9.28-11.8 14.84-2.13z" stroke="#3a414a" stroke-width="3" fill="#3a414a"/><path d="M611.95 1685.3v53.02" stroke="#3a414a" stroke-width="3" stroke-linejoin="round" fill="none"/><path d="M613.43 1685.35h-2.95v-1.54h2.95z" stroke="#3a414a" stroke-width=".05" fill="#3a414a"/><path d="M611.95 1752.8l-7.5-12.98h15z" stroke="#3a414a" stroke-width="3" fill="#3a414a"/><path d="M326.88 2252.73l-.26 47.47" stroke="#3a414a" stroke-width="3" stroke-linejoin="round" fill="none"/><path d="M328.36 2252.78l-2.95-.02.02-1.53h2.95z" stroke="#3a414a" stroke-width=".05" fill="#3a414a"/><path d="M326.54 2314.7l-7.43-13.04 15 .08z" stroke="#3a414a" stroke-width="3" fill="#3a414a"/><path d="M1800.9 1238.1a7.8 7.8 0 0 1 7.56-5.8h291.4a4.6 4.6 0 0 1 4.46 5.8l-63.14 236.75a7.8 7.8 0 0 1-7.54 5.8h-291.4a4.6 4.6 0 0 1-4.46-5.8z" stroke="#000" stroke-width="2" fill="#aee9aa" fill-opacity=".96"/><use xlink:href="#J" transform="matrix(1,0,0,1,1754.7151211689672,1244.721397632646) translate(55.78722656250001 102.1875)"/><use xlink:href="#K" transform="matrix(1,0,0,1,1754.7151211689672,1244.721397632646) translate(156.3594921875 102.1875)"/><use xlink:href="#L" transform="matrix(1,0,0,1,1754.7151211689672,1244.721397632646) translate(204.96984375 102.1875)"/><use xlink:href="#M" transform="matrix(1,0,0,1,1754.7151211689672,1244.721397632646) translate(265.7676953125 102.1875)"/><use xlink:href="#N" transform="matrix(1,0,0,1,1754.7151211689672,1244.721397632646) translate(102.21789062500001 139.93828125)"/><path d="M-390.87 2230.85a11.58 11.58 0 0 1 10.66 0l147.64 76.5a3.1 3.1 0 0 1 0 5.53l-147.65 76.52a11.58 11.58 0 0 1-10.67 0l-147.65-76.52a3.1 3.1 0 0 1 0-5.52z" stroke="#000" stroke-width="2" fill="#fff"/><use xlink:href="#O" transform="matrix(1,0,0,1,-528.0205539107758,2236.2916393200667) translate(59.56017578125 66.8125)"/><use xlink:href="#P" transform="matrix(1,0,0,1,-528.0205539107758,2236.2916393200667) translate(126.52794921875 66.8125)"/><use xlink:href="#Q" transform="matrix(1,0,0,1,-528.0205539107758,2236.2916393200667) translate(168.24474609375 66.8125)"/><use xlink:href="#R" transform="matrix(1,0,0,1,-528.0205539107758,2236.2916393200667) translate(191.95958984375 66.8125)"/><use xlink:href="#S" transform="matrix(1,0,0,1,-528.0205539107758,2236.2916393200667) translate(75.01671875 104.56328124999999)"/><use xlink:href="#P" transform="matrix(1,0,0,1,-528.0205539107758,2236.2916393200667) translate(151.874140625 104.56328124999999)"/><use xlink:href="#T" transform="matrix(1,0,0,1,-528.0205539107758,2236.2916393200667) translate(193.5909375 104.56328124999999)"/><path d="M-228.37 2310.15l2.27.05 3.52.22 3.3.35 3.12.46 2.95.56 2.8.65 2.68.75 2.56.83 2.48.92 2.38 1 2.3 1.1 2.26 1.16 2.2 1.28 2.13 1.36 2.1 1.46 2.06 1.57 2.04 1.7 2.02 1.8 2 1.96 2 2.12 1.97 2.3 1.97 2.5 1.97 2.72 2 2.98 1.98 3.3 2 3.63 2 4.05 2.03 4.55 2.03 5.13 2.03 5.86 2.04 6.73 2 7.84 1.98 9.3 1.9 11.22 1.75 14 1.5 18.3 1.1 27.2.08 7.9" stroke="#3a414a" stroke-width="3" stroke-linejoin="round" fill="none"/><path d="M-228.3 2308.68l-.06 2.95-1.8-.04.2-.6.1-.88-.1-.9-.2-.58z" stroke="#3a414a" stroke-width=".05" fill="#3a414a"/><path d="M-146.72 2485.46l-7.62-12.93 15-.13z" stroke="#3a414a" stroke-width="3" fill="#3a414a"/><path d="M-308.47 2495.25a7.8 7.8 0 0 1 7.55-5.8h363.8a4.6 4.6 0 0 1 4.46 5.8l-52.26 195.98a7.8 7.8 0 0 1-7.55 5.8h-363.8a4.6 4.6 0 0 1-4.46-5.8z" stroke="#000" stroke-width="2" fill="#aee9aa" fill-opacity=".96"/><use xlink:href="#U" transform="matrix(1,0,0,1,-340.7160382064101,2499.835657227562) translate(28.054804687500006 83.625)"/><use xlink:href="#V" transform="matrix(1,0,0,1,-340.7160382064101,2499.835657227562) translate(70.54601562500001 83.625)"/><use xlink:href="#W" transform="matrix(1,0,0,1,-340.7160382064101,2499.835657227562) translate(155.3887890625 83.625)"/><use xlink:href="#X" transform="matrix(1,0,0,1,-340.7160382064101,2499.835657227562) translate(263.616328125 83.625)"/><use xlink:href="#Y" transform="matrix(1,0,0,1,-340.7160382064101,2499.835657227562) translate(129.862421875 121.37578124999999)"/><path d="M615.2 1926.48a12.13 12.13 0 0 1 10.76 0l131.28 64.97a2.97 2.97 0 0 1 0 5.32l-131.28 64.96a12.13 12.13 0 0 1-10.76 0l-131.28-64.96a2.97 2.97 0 0 1 0-5.32z" stroke="#000" stroke-width="2" fill="#fff"/><use xlink:href="#Z" transform="matrix(1,0,0,1,492.74715776069166,1930.8518788034144) translate(63.69201171875001 72.8125)"/><use xlink:href="#P" transform="matrix(1,0,0,1,492.74715776069166,1930.8518788034144) translate(133.19884765625 72.8125)"/><use xlink:href="#T" transform="matrix(1,0,0,1,492.74715776069166,1930.8518788034144) translate(174.91564453125 72.8125)"/><path d="M479.76 1994.14l-6.16.13-7.52.47-7.38.78-7.24 1.07-7.1 1.34-6.96 1.63-6.8 1.9-6.68 2.17-6.53 2.43-6.4 2.68-6.2 2.93-6.08 3.17-5.9 3.4-5.75 3.66-5.57 3.88-5.4 4.1-5.2 4.3-5.02 4.52-4.82 4.72-4.62 4.92-4.42 5.12-4.2 5.3-3.98 5.48-3.76 5.65-3.52 5.82-3.3 6-3.05 6.14-2.8 6.3-2.55 6.45-2.3 6.6-2.03 6.76-1.77 6.88-1.5 7.03-1.2 7.17-.93 7.3-.12 1.43" stroke="#3a414a" stroke-width="3" stroke-linejoin="round" fill="none"/><path d="M481.36 1993.23l-.1.88.1.88.2.6-1.8.04-.07-2.95 1.87-.04z" stroke="#3a414a" stroke-width=".05" fill="#3a414a"/><path d="M314.3 2158.24l-6.86-13.35 14.98.73z" stroke="#3a414a" stroke-width="3" fill="#3a414a"/><path d="M761.4 1994.14l4.57.1 5.84.36 5.64.6 5.45.8 5.28 1 5.15 1.2 5.02 1.42 4.9 1.6 4.8 1.77 4.72 1.98 4.63 2.18 4.57 2.38 4.5 2.6 4.45 2.83 4.4 3.06 4.36 3.3 4.32 3.58 4.28 3.87 4.25 4.16 4.2 4.48 4.18 4.85 4.14 5.2 4.08 5.62 4 6.04 3.94 6.5 3.84 7 3.72 7.5 3.58 8.03 3.4 8.6 3.18 9.14 2.93 9.7 2.64 10.24 2.28 10.75 1.9 11.2 1.45 11.56 1 11.86.02.6" stroke="#3a414a" stroke-width="3" stroke-linejoin="round" fill="none"/><path d="M761.47 1992.67l-.06 2.95-1.8-.04.2-.6.1-.87-.1-.87-.2-.6z" stroke="#3a414a" stroke-width=".05" fill="#3a414a"/><path d="M907.44 2186.23l-7.9-12.75 15-.47z" stroke="#3a414a" stroke-width="3" fill="#3a414a"/><path d="M745.76 2196.03a7.8 7.8 0 0 1 7.54-5.8h363.8a4.6 4.6 0 0 1 4.46 5.8L1069.3 2392a7.8 7.8 0 0 1-7.54 5.8h-363.8a4.6 4.6 0 0 1-4.46-5.8z" stroke="#000" stroke-width="2" fill="#aee9aa" fill-opacity=".96"/><use xlink:href="#U" transform="matrix(1,0,0,1,713.5103518966685,2200.6087404164036) translate(28.054804687500006 83.625)"/><use xlink:href="#V" transform="matrix(1,0,0,1,713.5103518966685,2200.6087404164036) translate(70.54601562500001 83.625)"/><use xlink:href="#W" transform="matrix(1,0,0,1,713.5103518966685,2200.6087404164036) translate(155.3887890625 83.625)"/><use xlink:href="#X" transform="matrix(1,0,0,1,713.5103518966685,2200.6087404164036) translate(263.616328125 83.625)"/><use xlink:href="#Y" transform="matrix(1,0,0,1,713.5103518966685,2200.6087404164036) translate(129.862421875 121.37578124999999)"/><path d="M1431.8 1238.1a7.8 7.8 0 0 1 7.54-5.8h256.62a4.6 4.6 0 0 1 4.45 5.8l-29.6 111.07a7.8 7.8 0 0 1-7.55 5.8h-256.62a4.6 4.6 0 0 1-4.46-5.8z" stroke="#000" stroke-width="2" fill="#aee9aa" fill-opacity=".96"/><use xlink:href="#o" transform="matrix(1,0,0,1,1415.6941182118103,1238.4375151952872) translate(26.177851562500003 63.34375)"/><use xlink:href="#c" transform="matrix(1,0,0,1,1415.6941182118103,1238.4375151952872) translate(90.79699218750001 63.34375)"/><use xlink:href="#aa" transform="matrix(1,0,0,1,1415.6941182118103,1238.4375151952872) translate(129.1876171875 63.34375)"/><path d="M-473.84 1874.22a7.8 7.8 0 0 1 7.54-5.8h207.74a4.6 4.6 0 0 1 4.45 5.8l-27.85 104.4a7.8 7.8 0 0 1-7.55 5.8h-207.73a4.6 4.6 0 0 1-4.45-5.8z" stroke="#000" stroke-width="2" fill="#aee9aa" fill-opacity=".96"/><use xlink:href="#ab" transform="matrix(1,0,0,1,-490.69798271842404,1874.2184806133662) translate(24.831171875000003 61.28125)"/><use xlink:href="#ac" transform="matrix(1,0,0,1,-490.69798271842404,1874.2184806133662) translate(123.14367187500001 61.28125)"/><path d="M-377.9 1986.92v52.38" stroke="#3a414a" stroke-width="3" stroke-linejoin="round" fill="none"/><path d="M-376.42 1986.96h-2.95v-1.54h2.95z" stroke="#3a414a" stroke-width=".05" fill="#3a414a"/><path d="M-377.9 2053.8l-7.5-13h15z" stroke="#3a414a" stroke-width="3" fill="#3a414a"/><path d="M-427.44 2063.58a7.8 7.8 0 0 1 7.54-5.8h116a4.6 4.6 0 0 1 4.46 5.8l-28.9 108.4a7.8 7.8 0 0 1-7.56 5.8h-116a4.6 4.6 0 0 1-4.45-5.8z" stroke="#000" stroke-width="2" fill="#e39b9b"/><use xlink:href="#ad" transform="matrix(1,0,0,1,-449.89798271842415,2063.785843172387) translate(37.232539062499995 62.3125)"/><path d="M-542.7 2310.15l-10.2.22-11.54.72-11.27 1.18-10.9 1.6-10.43 2-9.9 2.3-9.34 2.62-8.75 2.84-8.16 3.03-7.6 3.2-7.06 3.32-6.54 3.4-6.06 3.5-5.6 3.55-5.18 3.6-4.8 3.64-4.44 3.66-4.1 3.7-3.8 3.72-3.52 3.74-3.25 3.78-3.02 3.8-2.78 3.83-2.57 3.87-2.37 3.9-2.18 3.97-2 4.02-1.82 4.08-1.65 4.17-1.48 4.25-1.3 4.34-1.15 4.47-.98 4.6-.8 4.72-.06.5" stroke="#3a414a" stroke-width="3" stroke-linejoin="round" fill="none"/><path d="M-541.1 2309.23l-.1.9.1.88.2.6-1.82.03-.06-2.95 1.87-.04z" stroke="#3a414a" stroke-width=".05" fill="#3a414a"/><path d="M-720.3 2438.47l-6.58-13.5 14.97 1.06z" stroke="#3a414a" stroke-width="3" fill="#3a414a"/><path d="M-377.9 1762.14v87.8" stroke="#3a414a" stroke-width="3" stroke-linejoin="round" fill="none"/><path d="M-376.42 1762.18h-2.95v-1.54h2.95z" stroke="#3a414a" stroke-width=".05" fill="#3a414a"/><path d="M-377.9 1864.42l-7.5-13h15z" stroke="#3a414a" stroke-width="3" fill="#3a414a"/><path d="M-377.97 2180.28l-.36 7.88-.98 6.54-3.94 16.6" stroke="#3a414a" stroke-width="3" stroke-linejoin="round" fill="none"/><path d="M-376.5 2180.4l-2.94-.14.06-1.47h2.96z" stroke="#3a414a" stroke-width=".05" fill="#3a414a"/><path d="M-385.14 2225.57l-5.72-13.86 14.87 2z" stroke="#3a414a" stroke-width="3" fill="#3a414a"/><path d="M1551.32 1357.47l.7 48.48" stroke="#3a414a" stroke-width="3" stroke-linejoin="round" fill="none"/><path d="M1552.8 1357.5l-2.96.03-.02-1.56h2.95z" stroke="#3a414a" stroke-width=".05" fill="#3a414a"/><path d="M1552.2 1420.44l-7.67-12.88 15-.22z" stroke="#3a414a" stroke-width="3" fill="#3a414a"/><path d="M1459.87 1430.24a7.8 7.8 0 0 1 7.54-5.8h204.2a4.6 4.6 0 0 1 4.44 5.8l-31.4 117.73a7.8 7.8 0 0 1-7.54 5.8h-204.18a4.6 4.6 0 0 1-4.45-5.8z" stroke="#000" stroke-width="2" fill="#aee9aa" fill-opacity=".96"/><use xlink:href="#q" transform="matrix(1,0,0,1,1439.4549987831915,1430.9053094142155) translate(29.433222656250003 69.0625)"/><use xlink:href="#r" transform="matrix(1,0,0,1,1439.4549987831915,1430.9053094142155) translate(128.43126953125 69.0625)"/><path d="M1552.26 1556.27v53" stroke="#3a414a" stroke-width="3" stroke-linejoin="round" fill="none"/><path d="M1553.73 1556.3h-2.95v-1.53h2.95z" stroke="#3a414a" stroke-width=".05" fill="#3a414a"/><path d="M1552.26 1623.77l-7.5-13h15z" stroke="#3a414a" stroke-width="3" fill="#3a414a"/><path d="M1502.7 1633.57a7.8 7.8 0 0 1 7.56-5.8h116a4.6 4.6 0 0 1 4.45 5.8l-28.9 108.4a7.8 7.8 0 0 1-7.54 5.8h-116a4.6 4.6 0 0 1-4.46-5.8z" stroke="#000" stroke-width="2" fill="#e39b9b"/><use xlink:href="#s" transform="matrix(1,0,0,1,1480.2549987831915,1633.7719760808825) translate(42.177363281249995 62.3125)"/><path d="M1040.6 2541.6a6 6 0 0 1 6-6h341.35a6 6 0 0 1 6 6v76a6 6 0 0 1-6 6H1046.6a6 6 0 0 1-6-6z" stroke="#000" stroke-width="2" fill="#fff"/><use xlink:href="#t" transform="matrix(1,0,0,1,1058.278206927568,2540.0057510294305) translate(46.20849609375 50.1875)"/><use xlink:href="#u" transform="matrix(1,0,0,1,1058.278206927568,2540.0057510294305) translate(71.45947265625 50.1875)"/><use xlink:href="#v" transform="matrix(1,0,0,1,1058.278206927568,2540.0057510294305) translate(95.97412109375 50.1875)"/><use xlink:href="#w" transform="matrix(1,0,0,1,1058.278206927568,2540.0057510294305) translate(172.42529296875 50.1875)"/><use xlink:href="#ae" transform="matrix(1,0,0,1,1058.278206927568,2540.0057510294305) translate(192.76318359375 50.1875)"/><path d="M1217.33 2626.1l.25 6.64.7 6.1 1.02 5.18 1.45 5.18 6.93 20.23.4 2.04" stroke="#3a414a" stroke-width="3" stroke-linejoin="round" fill="none"/><path d="M1218.8 2626.1l-2.94.1-.06-1.6h2.95z" stroke="#3a414a" stroke-width=".05" fill="#3a414a"/><path d="M1229.43 2685.86l-8.68-12.24 14.94-1.4z" stroke="#3a414a" stroke-width="3" fill="#3a414a"/><path d="M1120.5 2695.65a7.8 7.8 0 0 1 7.55-5.8h233.42a4.6 4.6 0 0 1 4.45 5.8l-27 101.3a7.8 7.8 0 0 1-7.56 5.8h-233.4a4.6 4.6 0 0 1-4.47-5.8z" stroke="#000" stroke-width="2" fill="#aee9aa" fill-opacity=".96"/><use xlink:href="#A" transform="matrix(1,0,0,1,1105.7211753824563,2695.4933727560456) translate(29.988398437500003 60.25)"/><use xlink:href="#f" transform="matrix(1,0,0,1,1105.7211753824563,2695.4933727560456) translate(71.33703125 60.25)"/><use xlink:href="#B" transform="matrix(1,0,0,1,1105.7211753824563,2695.4933727560456) translate(132.6173046875 60.25)"/><use xlink:href="#C" transform="matrix(1,0,0,1,1105.7211753824563,2695.4933727560456) translate(176.301875 60.25)"/><use xlink:href="#D" transform="matrix(1,0,0,1,1105.7211753824563,2695.4933727560456) translate(201.083125 60.25)"/><path d="M1546.93 2324a11.58 11.58 0 0 1 10.65 0l147.66 76.5a3.1 3.1 0 0 1 0 5.53l-147.66 76.5a11.58 11.58 0 0 1-10.65 0l-147.66-76.5a3.1 3.1 0 0 1 0-5.52z" stroke="#000" stroke-width="2" fill="#fff"/><use xlink:href="#O" transform="matrix(1,0,0,1,1409.7758861131301,2329.4387022755136) translate(59.56017578125 66.8125)"/><use xlink:href="#P" transform="matrix(1,0,0,1,1409.7758861131301,2329.4387022755136) translate(126.52794921875 66.8125)"/><use xlink:href="#Q" transform="matrix(1,0,0,1,1409.7758861131301,2329.4387022755136) translate(168.24474609375 66.8125)"/><use xlink:href="#R" transform="matrix(1,0,0,1,1409.7758861131301,2329.4387022755136) translate(191.95958984375 66.8125)"/><use xlink:href="#S" transform="matrix(1,0,0,1,1409.7758861131301,2329.4387022755136) translate(75.01671875 104.56328124999999)"/><use xlink:href="#P" transform="matrix(1,0,0,1,1409.7758861131301,2329.4387022755136) translate(151.874140625 104.56328124999999)"/><use xlink:href="#T" transform="matrix(1,0,0,1,1409.7758861131301,2329.4387022755136) translate(193.5909375 104.56328124999999)"/><path d="M1709.42 2403.3l2.27.05 3.52.22 3.3.34 3.12.47 2.95.57 2.8.65 2.67.74 2.57.84 2.47.92 2.4 1 2.3 1.1 2.26 1.16 2.2 1.27 2.13 1.36 2.1 1.45 2.06 1.57 2.04 1.68 2.02 1.82 2 1.96 1.98 2.12 2 2.3 1.96 2.5 1.98 2.7 1.98 3 2 3.3 2 3.63 2 4.05 2.03 4.55 2.02 5.13 2.04 5.84 2.04 6.74 2 7.84 1.98 9.3 1.9 11.23 1.74 14 1.52 18.32 1.1 27.2.06 7.9" stroke="#3a414a" stroke-width="3" stroke-linejoin="round" fill="none"/><path d="M1709.5 2401.83l-.07 2.95-1.8-.04.2-.58.1-.9-.1-.88-.2-.6z" stroke="#3a414a" stroke-width=".05" fill="#3a414a"/><path d="M1791.07 2578.6l-7.6-12.92 15-.13z" stroke="#3a414a" stroke-width="3" fill="#3a414a"/><path d="M1629.33 2588.4a7.8 7.8 0 0 1 7.55-5.8h363.8a4.6 4.6 0 0 1 4.45 5.8l-52.26 195.98a7.8 7.8 0 0 1-7.54 5.8h-363.8a4.6 4.6 0 0 1-4.46-5.8z" stroke="#000" stroke-width="2" fill="#aee9aa" fill-opacity=".96"/><use xlink:href="#U" transform="matrix(1,0,0,1,1597.0804018174958,2592.982720183009) translate(28.054804687500006 83.625)"/><use xlink:href="#V" transform="matrix(1,0,0,1,1597.0804018174958,2592.982720183009) translate(70.54601562500001 83.625)"/><use xlink:href="#W" transform="matrix(1,0,0,1,1597.0804018174958,2592.982720183009) translate(155.3887890625 83.625)"/><use xlink:href="#X" transform="matrix(1,0,0,1,1597.0804018174958,2592.982720183009) translate(263.616328125 83.625)"/><use xlink:href="#Y" transform="matrix(1,0,0,1,1597.0804018174958,2592.982720183009) translate(129.862421875 121.37578124999999)"/><path d="M1456.3 1862.35a7.8 7.8 0 0 1 7.56-5.8h207.73a4.6 4.6 0 0 1 4.44 5.8l-27.84 104.4a7.8 7.8 0 0 1-7.55 5.8h-207.73a4.6 4.6 0 0 1-4.45-5.8z" stroke="#000" stroke-width="2" fill="#aee9aa" fill-opacity=".96"/><use xlink:href="#ab" transform="matrix(1,0,0,1,1439.4549987831915,1862.3529414989607) translate(24.831171875000003 61.28125)"/><use xlink:href="#ac" transform="matrix(1,0,0,1,1439.4549987831915,1862.3529414989607) translate(123.14367187500001 61.28125)"/><path d="M1552.26 1975.05v52.38" stroke="#3a414a" stroke-width="3" stroke-linejoin="round" fill="none"/><path d="M1553.73 1975.1h-2.95v-1.55h2.95z" stroke="#3a414a" stroke-width=".05" fill="#3a414a"/><path d="M1552.26 2041.92l-7.5-13h15z" stroke="#3a414a" stroke-width="3" fill="#3a414a"/><path d="M1502.7 2051.72a7.8 7.8 0 0 1 7.56-5.8h116a4.6 4.6 0 0 1 4.45 5.8l-28.9 108.4a7.8 7.8 0 0 1-7.54 5.8h-116a4.6 4.6 0 0 1-4.46-5.8z" stroke="#000" stroke-width="2" fill="#e39b9b"/><use xlink:href="#ad" transform="matrix(1,0,0,1,1480.2549987831915,2051.9203040579814) translate(37.232539062499995 62.3125)"/><path d="M1395.1 2403.3l-10.2.2-11.54.74-11.27 1.18-10.9 1.6-10.44 2-9.9 2.32-9.33 2.6-8.75 2.84-8.17 3.04-7.6 3.2-7.05 3.3-6.54 3.43-6.04 3.5-5.6 3.55-5.2 3.6-4.78 3.64-4.44 3.67-4.1 3.7-3.8 3.73-3.52 3.74-3.26 3.77-3 3.8-2.8 3.83-2.57 3.87-2.38 3.92-2.18 3.96-2 4.02-1.8 4.1-1.66 4.15-1.48 4.24-1.3 4.35-1.16 4.45-.97 4.6-.8 4.72-.07.5" stroke="#3a414a" stroke-width="3" stroke-linejoin="round" fill="none"/><path d="M1396.68 2402.38l-.1.9.1.88.2.58-1.8.04-.06-2.95 1.87-.04z" stroke="#3a414a" stroke-width=".05" fill="#3a414a"/><path d="M1217.5 2531.6l-6.58-13.47 14.96 1.05z" stroke="#3a414a" stroke-width="3" fill="#3a414a"/><path d="M1552.26 1750.27v87.8" stroke="#3a414a" stroke-width="3" stroke-linejoin="round" fill="none"/><path d="M1553.73 1750.3h-2.95v-1.53h2.95z" stroke="#3a414a" stroke-width=".05" fill="#3a414a"/><path d="M1552.26 1852.55l-7.5-13h15z" stroke="#3a414a" stroke-width="3" fill="#3a414a"/><path d="M1552.26 2168.42v135.8" stroke="#3a414a" stroke-width="3" stroke-linejoin="round" fill="none"/><path d="M1553.73 2168.46h-2.95v-1.54h2.95z" stroke="#3a414a" stroke-width=".05" fill="#3a414a"/><path d="M1552.26 2318.7l-7.5-13h15z" stroke="#3a414a" stroke-width="3" fill="#3a414a"/><path d="M-708.1 2712.1v108.32a24 24 0 0 0 24 24H672.1a24 24 0 0 1 24 24v92.33" stroke="#3a414a" stroke-width="3" fill="none"/><path d="M-706.6 2712.14h-2.96v-1.54h2.95z" stroke="#3a414a" stroke-width=".05" fill="#3a414a"/><path d="M696.08 2975.24l-7.5-13h15z" stroke="#3a414a" stroke-width="3" fill="#3a414a"/><path d="M-146.7 2699.53v114.6a24 24 0 0 0 24 24H672.1a24 24 0 0 1 24 24v98.62" stroke="#3a414a" stroke-width="3" fill="none"/><path d="M-145.22 2699.57h-2.95v-1.54h2.95z" stroke="#3a414a" stroke-width=".05" fill="#3a414a"/><path d="M696.08 2975.24l-7.5-13h15z" stroke="#3a414a" stroke-width="3" fill="#3a414a"/><path d="M736.08 2979.24c22.1 0 40 17.9 40 40s-17.9 40-40 40h-80c-22.1 0-40-17.9-40-40s17.9-40 40-40z" stroke="#000" stroke-width="2" fill="#fff"/><g><use xlink:href="#af" transform="matrix(1,0,0,1,624.0822161241049,2983.240280893464) translate(53.49658203125 45.4375)"/></g><path d="M326.52 2431.87v248.44a24 24 0 0 0 24 24h321.56a24 24 0 0 1 24 24v232.45" stroke="#3a414a" stroke-width="3" fill="none"/><path d="M328 2431.9h-2.96v-1.53H328z" stroke="#3a414a" stroke-width=".05" fill="#3a414a"/><path d="M696.08 2975.24l-7.5-13h15z" stroke="#3a414a" stroke-width="3" fill="#3a414a"/><path d="M907.53 2400.3v280a24 24 0 0 1-24 24H720.08a24 24 0 0 0-24 24v232.45" stroke="#3a414a" stroke-width="3" fill="none"/><path d="M909 2400.34h-2.94v-1.54H909z" stroke="#3a414a" stroke-width=".05" fill="#3a414a"/><path d="M696.08 2975.24l-7.5-13h15z" stroke="#3a414a" stroke-width="3" fill="#3a414a"/><path d="M1229.7 2805.24V2867a24 24 0 0 1-24 24H720.1a24 24 0 0 0-24 24v45.75" stroke="#3a414a" stroke-width="3" fill="none"/><path d="M1231.18 2805.28h-2.95v-1.54h2.95z" stroke="#3a414a" stroke-width=".05" fill="#3a414a"/><path d="M696.08 2975.24l-7.5-13h15z" stroke="#3a414a" stroke-width="3" fill="#3a414a"/><path d="M1791.1 2792.68v68.03a24 24 0 0 1-24 24H720.08a24 24 0 0 0-24 24v52.05" stroke="#3a414a" stroke-width="3" fill="none"/><path d="M1792.58 2792.72h-2.95v-1.54h2.95z" stroke="#3a414a" stroke-width=".05" fill="#3a414a"/><path d="M696.08 2975.24l-7.5-13h15z" stroke="#3a414a" stroke-width="3" fill="#3a414a"/><path d="M1921.05 1483.15v699.17a24 24 0 0 0 24 24h62.06a24 24 0 0 1 24 24V2867a24 24 0 0 1-24 24H720.1a24 24 0 0 0-24 24v45.75" stroke="#3a414a" stroke-width="3" fill="none"/><path d="M1922.52 1483.2h-2.95v-1.55h2.95z" stroke="#3a414a" stroke-width=".05" fill="#3a414a"/><path d="M696.08 2975.24l-7.5-13h15z" stroke="#3a414a" stroke-width="3" fill="#3a414a"/><path d="M334.46 1931.42a6 6 0 0 1 6-6h82.1a6 6 0 0 1 6 6v82.65a6 6 0 0 1-6 6h-82.1a6 6 0 0 1-6-6z" fill="none"/><g><use xlink:href="#ag" transform="matrix(1,0,0,1,339.4607084450531,1930.415977803987) translate(0 57.05078125)"/></g><path d="M-643.5 2234.1a6 6 0 0 1 6-6h82.12a6 6 0 0 1 6 6v66.04a6 6 0 0 1-6 6h-82.1a6 6 0 0 1-6-6z" fill="none"/><g><use xlink:href="#ag" transform="matrix(1,0,0,1,-638.4939753104704,2233.088236397498) translate(0 49.05078125)"/></g><path d="M166.62 2287a6 6 0 0 1 6-6h82.1a6 6 0 0 1 6 6v66.05a6 6 0 0 1-6 6h-82.1a6 6 0 0 1-6-6z" fill="none"/><g><use xlink:href="#ah" transform="matrix(1,0,0,1,171.62148555990188,2285.9934862864848) translate(0 49.05078125)"/></g><path d="M826.5 1908.26a6 6 0 0 1 6-6h82.1a6 6 0 0 1 6 6v82.66a6 6 0 0 1-6 6h-82.1a6 6 0 0 1-6-6z" fill="none"/><g><use xlink:href="#ah" transform="matrix(1,0,0,1,831.5007685713208,1907.2640172489037) translate(0 57.05078125)"/></g><path d="M1244.2 2296.53a6 6 0 0 1 6-6h82.1a6 6 0 0 1 6 6v82.66a6 6 0 0 1-6 6h-82.1a6 6 0 0 1-6-6z" fill="none"/><g><use xlink:href="#ag" transform="matrix(1,0,0,1,1249.1936086172357,2295.5346274546964) translate(0 57.05078125)"/></g><path d="M1736.23 2273.38a6 6 0 0 1 6-6h82.1a6 6 0 0 1 6 6v82.66a6 6 0 0 1-6 6h-82.1a6 6 0 0 1-6-6z" fill="none"/><g><use xlink:href="#ah" transform="matrix(1,0,0,1,1741.2336687435034,2272.382666899614) translate(0 57.05078125)"/></g><path d="M501.33 881.83v56.6" stroke="#3a414a" stroke-width="3" stroke-linejoin="round" fill="none"/><path d="M502.8 881.87h-2.94v-1.54h2.95z" stroke="#3a414a" stroke-width=".05" fill="#3a414a"/><path d="M501.33 952.9l-7.5-12.98h15z" stroke="#3a414a" stroke-width="3" fill="#3a414a"/><path d="M497.1 958.67a6 6 0 0 1 8.48 0l71.5 71.52a6 6 0 0 1 0 8.47l-71.5 71.52a6 6 0 0 1-8.5 0l-71.5-71.53a6 6 0 0 1 0-8.48z" stroke="#000" stroke-width="2" fill="#fff"/><g><use xlink:href="#n" transform="matrix(1,0,0,1,429.33333333333337,962.4285949418029) translate(30.199335937499995 83.6875)"/></g><path d="M501.33 1114.45v33.67a24 24 0 0 1-24 24H-353.9a24 24 0 0 0-24 24v17.7" stroke="#3a414a" stroke-width="3" fill="none"/><path d="M500.24 1112.86l1.1.1 1.1-.1.37-.1v1.72h-2.94v-1.7z" stroke="#3a414a" stroke-width=".05" fill="#3a414a"/><path d="M-377.9 1228.3l-7.5-13h15z" stroke="#3a414a" stroke-width="3" fill="#3a414a"/><path d="M501.33 1114.45v33.67a24 24 0 0 0 24 24h59.2a24 24 0 0 1 24 24v17.7" stroke="#3a414a" stroke-width="3" fill="none"/><path d="M500.24 1112.86l1.1.1 1.1-.1.37-.1v1.72h-2.94v-1.7z" stroke="#3a414a" stroke-width=".05" fill="#3a414a"/><path d="M608.52 1228.3l-7.5-13h15z" stroke="#3a414a" stroke-width="3" fill="#3a414a"/><path d="M501.33 1114.45v33.67a24 24 0 0 0 24 24H1527.3a24 24 0 0 1 24 24v17.7" stroke="#3a414a" stroke-width="3" fill="none"/><path d="M500.24 1112.86l1.1.1 1.1-.1.37-.1v1.72h-2.94v-1.7z" stroke="#3a414a" stroke-width=".05" fill="#3a414a"/><path d="M1551.3 1228.3l-7.5-13h15z" stroke="#3a414a" stroke-width="3" fill="#3a414a"/><path d="M484.1 1238.1a7.8 7.8 0 0 1 7.55-5.8h256.62a4.6 4.6 0 0 1 4.46 5.8l-29.62 111.07a7.8 7.8 0 0 1-7.54 5.8H458.94a4.6 4.6 0 0 1-4.45-5.8z" stroke="#000" stroke-width="2" fill="#aee9aa" fill-opacity=".96"/><g><use xlink:href="#o" transform="matrix(1,0,0,1,468.00545336902024,1238.4375151952872) translate(43.1895703125 63.34375)"/><use xlink:href="#c" transform="matrix(1,0,0,1,468.00545336902024,1238.4375151952872) translate(107.80871093750001 63.34375)"/><use xlink:href="#ai" transform="matrix(1,0,0,1,468.00545336902024,1238.4375151952872) translate(146.1993359375 63.34375)"/></g><path d="M501.33 1114.45v33.67a24 24 0 0 0 24 24h1371.72a24 24 0 0 1 24 24v17.7" stroke="#3a414a" stroke-width="3" fill="none"/><path d="M500.24 1112.86l1.1.1 1.1-.1.37-.1v1.72h-2.94v-1.7z" stroke="#3a414a" stroke-width=".05" fill="#3a414a"/><path d="M1921.05 1228.3l-7.5-13h15z" stroke="#3a414a" stroke-width="3" fill="#3a414a"/><path d="M-305.84 1057.58a6 6 0 0 1 6-6h82.1a6 6 0 0 1 6 6v82.65a6 6 0 0 1-6 6h-82.1a6 6 0 0 1-6-6z" fill="none"/><g><use xlink:href="#aj" transform="matrix(1,0,0,1,-300.84400819844745,1056.578998240888) translate(0 57.05078125)"/></g><path d="M629.52 1069.06a6 6 0 0 1 6-6h82.1a6 6 0 0 1 6 6v82.65a6 6 0 0 1-6 6h-82.1a6 6 0 0 1-6-6z" fill="none"/><g><use xlink:href="#ak" transform="matrix(1,0,0,1,634.5169303023565,1068.0558195721862) translate(0 57.05078125)"/></g><path d="M1513.23 1082.44a6 6 0 0 1 6-6h82.1a6 6 0 0 1 6 6v82.66a6 6 0 0 1-6 6h-82.1a6 6 0 0 1-6-6z" fill="none"/><g><use xlink:href="#al" transform="matrix(1,0,0,1,1518.2321728123188,1081.4454444587009) translate(0 57.05078125)"/></g><path d="M1912.57 1082.44a6 6 0 0 1 6-6h82.1a6 6 0 0 1 6 6v82.66a6 6 0 0 1-6 6h-82.1a6 6 0 0 1-6-6z" fill="none"/><g><use xlink:href="#am" transform="matrix(1,0,0,1,1917.5691064352545,1081.4454444587009) translate(0 57.05078125)"/></g><path d="M501.33 1114.45v33.67a24 24 0 0 0 24 24H2411.4a24 24 0 0 1 24 24v17.7" stroke="#3a414a" stroke-width="3" fill="none"/><path d="M500.24 1112.86l1.1.1 1.1-.1.37-.1v1.72h-2.94v-1.7z" stroke="#3a414a" stroke-width=".05" fill="#3a414a"/><path d="M2435.4 1228.3l-7.5-13h15z" stroke="#3a414a" stroke-width="3" fill="#3a414a"/><path d="M2315.26 1238.1a7.8 7.8 0 0 1 7.55-5.8h291.4a4.6 4.6 0 0 1 4.46 5.8l-63.13 236.75a7.8 7.8 0 0 1-7.55 5.8h-291.4a4.6 4.6 0 0 1-4.45-5.8z" stroke="#000" stroke-width="2" fill="#aee9aa" fill-opacity=".96"/><g><use xlink:href="#an" transform="matrix(1,0,0,1,2269.0621133394234,1244.721397632646) translate(71.15978515625001 123.1875)"/><use xlink:href="#ao" transform="matrix(1,0,0,1,2269.0621133394234,1244.721397632646) translate(166.37462890625 123.1875)"/></g><path d="M2329.04 1084.36a6 6 0 0 1 6-6h82.1a6 6 0 0 1 6 6V1167a6 6 0 0 1-6 6h-82.1a6 6 0 0 1-6-6z" fill="none"/><g><use xlink:href="#ap" transform="matrix(1,0,0,1,2334.0428891120996,1083.3582480139173) translate(0 57.05078125)"/></g><path d="M2435.4 1483.15V2867a24 24 0 0 1-24 24H720.08a24 24 0 0 0-24 24v45.75" stroke="#3a414a" stroke-width="3" fill="none"/><path d="M2436.87 1483.2h-2.95v-1.55h2.95z" stroke="#3a414a" stroke-width=".05" fill="#3a414a"/><path d="M696.08 2975.24l-7.5-13h15z" stroke="#3a414a" stroke-width="3" fill="#3a414a"/><defs><path d="M370-1490V0H180v-1490h190" id="aq"/><path d="M338-670V0H158v-1118h173l1 207c72-158 192-221 342-221 226 0 378 139 378 422V0H872v-695c0-172-96-275-252-275-161 0-282 109-282 300" id="ar"/><path d="M158 0v-1118h180V0H158zm91-1301c-68 0-125-53-125-119s57-119 125-119c69 0 126 53 126 119s-57 119-126 119" id="as"/><path d="M613 24c-304 0-509-231-509-576 0-350 205-580 509-580 216 0 392 114 453 309l-173 49c-33-115-133-197-280-197-223 0-326 196-326 419 0 220 103 415 326 415 150 0 252-85 285-206l172 49C1010-95 832 24 613 24" id="at"/><path d="M613 24c-304 0-509-231-509-576 0-350 205-580 509-580 305 0 511 230 511 580 0 345-206 576-511 576zm0-161c226 0 329-195 329-415 0-222-103-419-329-419-223 0-326 196-326 419 0 220 103 415 326 415" id="au"/><g id="a"><use transform="matrix(0.0126953125,0,0,0.0126953125,0,0)" xlink:href="#aq"/><use transform="matrix(0.0126953125,0,0,0.0126953125,6.982421875,0)" xlink:href="#ar"/><use transform="matrix(0.0126953125,0,0,0.0126953125,22.34375,0)" xlink:href="#as"/><use transform="matrix(0.0126953125,0,0,0.0126953125,28.640625,0)" xlink:href="#at"/><use transform="matrix(0.0126953125,0,0,0.0126953125,43.494140625,0)" xlink:href="#as"/><use transform="matrix(0.0126953125,0,0,0.0126953125,49.791015625,0)" xlink:href="#au"/></g><path d="M180 0v-1490h270l367 940c28 72 75 218 110 339 35-117 81-264 110-339l362-940h271V0h-187c2-448-5-837 7-1287-157 497-311 829-483 1287H842C666-458 514-784 354-1284c12 438 5 843 7 1284H180" id="av"/><path d="M628 24c-324 0-524-230-524-574 0-343 198-582 503-582 237 0 487 146 487 559v75H286c9 234 145 362 343 362 132 0 231-58 273-172l174 48C1024-91 857 24 628 24zM287-650h624c-17-190-120-322-304-322-192 0-309 151-320 322" id="aw"/><path d="M537 14c-226 0-379-139-379-422v-710h180v695c0 172 97 275 253 275 160 0 281-109 281-300v-670h181V0H879v-209C806-46 684 14 537 14" id="ax"/><g id="b"><use transform="matrix(0.0126953125,0,0,0.0126953125,0,0)" xlink:href="#av"/><use transform="matrix(0.0126953125,0,0,0.0126953125,23.486328125,0)" xlink:href="#aw"/><use transform="matrix(0.0126953125,0,0,0.0126953125,38.64453125,0)" xlink:href="#ar"/><use transform="matrix(0.0126953125,0,0,0.0126953125,54.005859375,0)" xlink:href="#ax"/></g><path d="M577 24c-279 0-473-224-473-580 0-354 195-576 474-576 218 0 287 134 324 193h14v-551h180V0H922v-173h-20C865-111 790 24 577 24zm27-161c203 0 314-172 314-421 0-247-108-413-314-413-212 0-317 181-317 413 0 235 108 421 317 421" id="ay"/><g id="c"><use transform="matrix(0.0126953125,0,0,0.0126953125,0,0)" xlink:href="#ay"/><use transform="matrix(0.0126953125,0,0,0.0126953125,15.919921875,0)" xlink:href="#aw"/></g><path d="M471 26C259 26 90-98 90-318c0-256 228-303 435-329 202-27 287-16 287-108 0-139-79-219-234-219-161 0-248 86-283 164l-173-57c86-203 278-265 451-265 150 0 419 46 419 395V0H815v-152h-12C765-73 660 26 471 26zm31-159c199 0 310-134 310-271v-155c-30 35-226 55-295 64-131 17-246 59-246 186 0 116 97 176 231 176" id="az"/><path d="M158 0v-1118h174v172h12c41-113 157-188 290-188 26 0 70 2 91 3v181c-11-2-60-10-108-10-161 0-279 109-279 260V0H158" id="aA"/><path d="M538 24C308 24 148-78 108-271l171-41c32 123 123 178 257 178 156 0 256-77 256-169 0-77-54-128-164-154l-186-44c-203-48-300-148-300-305 0-192 176-326 414-326 230 0 351 112 402 269l-163 42c-31-80-94-158-238-158-133 0-233 69-233 162 0 83 57 129 188 160l169 40c203 48 298 149 298 302 0 196-179 339-441 339" id="aB"/><path d="M295 13c-75 0-135-60-135-135s60-135 135-135 135 60 135 135S370 13 295 13zm0-809c-75 0-135-60-135-135s60-135 135-135 135 60 135 135-60 135-135 135" id="aC"/><g id="d"><use transform="matrix(0.0126953125,0,0,0.0126953125,0,0)" xlink:href="#az"/><use transform="matrix(0.0126953125,0,0,0.0126953125,14.599609375,0)" xlink:href="#aA"/><use transform="matrix(0.0126953125,0,0,0.0126953125,23.9560546875,0)" xlink:href="#aw"/><use transform="matrix(0.0126953125,0,0,0.0126953125,39.3681640625,0)" xlink:href="#az"/><use transform="matrix(0.0126953125,0,0,0.0126953125,53.9677734375,0)" xlink:href="#aB"/><use transform="matrix(0.0126953125,0,0,0.0126953125,67.69140625,0)" xlink:href="#aC"/></g><path d="M653-1490V0H466v-1314h-10L96-1047v-204l324-239h233" id="aD"/><path d="M96 279C273-86 346-350 346-607c0-292-95-659-250-974h175c150 246 258 650 258 974 0 297-91 602-258 886H96" id="aE"/><g id="e"><use transform="matrix(0.0126953125,0,0,0.0126953125,0,0)" xlink:href="#aD"/><use transform="matrix(0.0126953125,0,0,0.0126953125,10.5751953125,0)" xlink:href="#aE"/></g><g id="f"><use transform="matrix(0.0126953125,0,0,0.0126953125,0,0)" xlink:href="#az"/><use transform="matrix(0.0126953125,0,0,0.0126953125,14.599609375,0)" xlink:href="#aA"/><use transform="matrix(0.0126953125,0,0,0.0126953125,23.9560546875,0)" xlink:href="#aw"/><use transform="matrix(0.0126953125,0,0,0.0126953125,39.3681640625,0)" xlink:href="#az"/></g><path d="M598-1118v154H368v674c0 100 37 144 132 144 23 0 62-6 92-12L629-6c-37 13-88 20-134 20-193 0-307-107-307-290v-688H20v-154h168v-266h180v266h230" id="aF"/><path d="M611 442c-248 0-391-105-460-228l146-94c47 65 117 165 314 165 178 0 307-82 307-266v-224h-17C863-141 792-18 576-18c-268 0-472-195-472-546 0-346 197-568 476-568 216 0 288 133 326 193h17v-179h175V29c0 289-215 413-487 413zm-5-620c203 0 314-146 314-390 0-237-108-403-314-403-213 0-319 180-319 403 0 230 109 390 319 390" id="aG"/><path d="M338-1490V0H158v-1490h180" id="aH"/><g id="g"><use transform="matrix(0.0126953125,0,0,0.0126953125,0,0)" xlink:href="#aF"/><use transform="matrix(0.0126953125,0,0,0.0126953125,8.505859375,0)" xlink:href="#aA"/><use transform="matrix(0.0126953125,0,0,0.0126953125,18.7001953125,0)" xlink:href="#as"/><use transform="matrix(0.0126953125,0,0,0.0126953125,24.9970703125,0)" xlink:href="#az"/><use transform="matrix(0.0126953125,0,0,0.0126953125,39.5966796875,0)" xlink:href="#ar"/><use transform="matrix(0.0126953125,0,0,0.0126953125,54.9580078125,0)" xlink:href="#aG"/><use transform="matrix(0.0126953125,0,0,0.0126953125,70.9033203125,0)" xlink:href="#ax"/><use transform="matrix(0.0126953125,0,0,0.0126953125,86.27734375,0)" xlink:href="#aH"/><use transform="matrix(0.0126953125,0,0,0.0126953125,92.57421875,0)" xlink:href="#au"/></g><path d="M154 0v-137l495-537c165-179 249-281 249-418 0-156-121-253-280-253-170 0-278 110-278 278H158c0-264 200-443 465-443 266 0 455 183 455 416 0 161-73 288-336 568L416-179v12h687V0H154" id="aI"/><g id="h"><use transform="matrix(0.0126953125,0,0,0.0126953125,0,0)" xlink:href="#aI"/><use transform="matrix(0.0126953125,0,0,0.0126953125,15.8564453125,0)" xlink:href="#aE"/></g><g id="i"><use transform="matrix(0.0126953125,0,0,0.0126953125,0,0)" xlink:href="#at"/><use transform="matrix(0.0126953125,0,0,0.0126953125,14.853515625,0)" xlink:href="#as"/><use transform="matrix(0.0126953125,0,0,0.0126953125,21.150390625,0)" xlink:href="#aA"/><use transform="matrix(0.0126953125,0,0,0.0126953125,30.5068359375,0)" xlink:href="#at"/><use transform="matrix(0.0126953125,0,0,0.0126953125,45.3603515625,0)" xlink:href="#ax"/><use transform="matrix(0.0126953125,0,0,0.0126953125,60.734375,0)" xlink:href="#aH"/><use transform="matrix(0.0126953125,0,0,0.0126953125,67.03125,0)" xlink:href="#au"/></g><path d="M635 20c-292 0-500-160-510-396h192c11 142 145 229 315 229 187 0 323-105 323-260 0-161-125-274-346-274H488v-165h121c174 0 294-100 294-254 0-148-104-245-266-245-152 0-291 85-297 230H157c8-234 222-395 484-395 278 0 448 188 448 400 0 168-95 291-247 336v12c190 31 301 169 301 357 0 244-216 425-508 425" id="aJ"/><g id="j"><use transform="matrix(0.0126953125,0,0,0.0126953125,0,0)" xlink:href="#aJ"/><use transform="matrix(0.0126953125,0,0,0.0126953125,16.0595703125,0)" xlink:href="#aE"/></g><g id="k"><use transform="matrix(0.0126953125,0,0,0.0126953125,0,0)" xlink:href="#at"/><use transform="matrix(0.0126953125,0,0,0.0126953125,14.853515625,0)" xlink:href="#ax"/><use transform="matrix(0.0126953125,0,0,0.0126953125,30.2275390625,0)" xlink:href="#az"/><use transform="matrix(0.0126953125,0,0,0.0126953125,44.8271484375,0)" xlink:href="#ay"/><use transform="matrix(0.0126953125,0,0,0.0126953125,60.7470703125,0)" xlink:href="#aA"/><use transform="matrix(0.0126953125,0,0,0.0126953125,70.53515625,0)" xlink:href="#az"/><use transform="matrix(0.0126953125,0,0,0.0126953125,85.134765625,0)" xlink:href="#ay"/><use transform="matrix(0.0126953125,0,0,0.0126953125,101.0546875,0)" xlink:href="#au"/></g><path d="M120-303v-155l652-1032h231v1020h202v167h-202V0H821v-303H120zm702-167v-782h-12L323-482v12h499" id="aK"/><g id="l"><use transform="matrix(0.0126953125,0,0,0.0126953125,0,0)" xlink:href="#aK"/><use transform="matrix(0.0126953125,0,0,0.0126953125,16.7958984375,0)" xlink:href="#aE"/></g><g id="m"><use transform="matrix(0.0126953125,0,0,0.0126953125,0,0)" xlink:href="#aB"/><use transform="matrix(0.0126953125,0,0,0.0126953125,13.7236328125,0)" xlink:href="#az"/><use transform="matrix(0.0126953125,0,0,0.0126953125,28.3232421875,0)" xlink:href="#aH"/><use transform="matrix(0.0126953125,0,0,0.0126953125,34.6201171875,0)" xlink:href="#as"/><use transform="matrix(0.0126953125,0,0,0.0126953125,40.9169921875,0)" xlink:href="#aA"/></g><path d="M158 418v-1536h174v179h20c37-59 106-193 324-193 279 0 474 222 474 576 0 356-194 580-473 580-213 0-288-135-325-197h-14v591H158zm492-555c209 0 317-186 317-421 0-232-105-413-317-413-206 0-314 166-314 413 0 249 111 421 314 421" id="aL"/><g id="n"><use transform="matrix(0.0126953125,0,0,0.0126953125,0,0)" xlink:href="#au"/><use transform="matrix(0.0126953125,0,0,0.0126953125,15.58984375,0)" xlink:href="#aL"/><use transform="matrix(0.0126953125,0,0,0.0126953125,31.509765625,0)" xlink:href="#at"/><use transform="matrix(0.0126953125,0,0,0.0126953125,46.36328125,0)" xlink:href="#as"/><use transform="matrix(0.0126953125,0,0,0.0126953125,52.66015625,0)" xlink:href="#au"/><use transform="matrix(0.0126953125,0,0,0.0126953125,68.25,0)" xlink:href="#ar"/></g><path d="M52 0l541-1490h220L1361 0h-200l-149-416H398L254 0H52zm404-582h497c-103-290-145-390-251-756-108 377-145 460-246 756" id="aM"/><g id="o"><use transform="matrix(0.0126953125,0,0,0.0126953125,0,0)" xlink:href="#aM"/><use transform="matrix(0.0126953125,0,0,0.0126953125,17.9384765625,0)" xlink:href="#aA"/><use transform="matrix(0.0126953125,0,0,0.0126953125,27.294921875,0)" xlink:href="#aw"/><use transform="matrix(0.0126953125,0,0,0.0126953125,42.70703125,0)" xlink:href="#az"/></g><g id="p"><use transform="matrix(0.0126953125,0,0,0.0126953125,0,0)" xlink:href="#aF"/><use transform="matrix(0.0126953125,0,0,0.0126953125,8.505859375,0)" xlink:href="#aA"/><use transform="matrix(0.0126953125,0,0,0.0126953125,18.7001953125,0)" xlink:href="#as"/><use transform="matrix(0.0126953125,0,0,0.0126953125,24.9970703125,0)" xlink:href="#az"/><use transform="matrix(0.0126953125,0,0,0.0126953125,39.5966796875,0)" xlink:href="#ar"/><use transform="matrix(0.0126953125,0,0,0.0126953125,54.9580078125,0)" xlink:href="#aG"/><use transform="matrix(0.0126953125,0,0,0.0126953125,70.9033203125,0)" xlink:href="#ax"/><use transform="matrix(0.0126953125,0,0,0.0126953125,86.27734375,0)" xlink:href="#aH"/><use transform="matrix(0.0126953125,0,0,0.0126953125,92.57421875,0)" xlink:href="#au"/></g><g id="q"><use transform="matrix(0.0126953125,0,0,0.0126953125,0,0)" xlink:href="#aq"/><use transform="matrix(0.0126953125,0,0,0.0126953125,6.982421875,0)" xlink:href="#ar"/><use transform="matrix(0.0126953125,0,0,0.0126953125,22.34375,0)" xlink:href="#aG"/><use transform="matrix(0.0126953125,0,0,0.0126953125,38.2890625,0)" xlink:href="#aA"/><use transform="matrix(0.0126953125,0,0,0.0126953125,47.6455078125,0)" xlink:href="#aw"/><use transform="matrix(0.0126953125,0,0,0.0126953125,62.8037109375,0)" xlink:href="#aB"/><use transform="matrix(0.0126953125,0,0,0.0126953125,76.52734375,0)" xlink:href="#aw"/></g><path d="M677 24c-213 0-288-135-325-197h-20V0H158v-1490h180v551h14c37-59 106-193 324-193 279 0 474 222 474 576 0 356-194 580-473 580zm-27-161c209 0 317-186 317-421 0-232-105-413-317-413-206 0-314 166-314 413 0 249 111 421 314 421" id="aN"/><g id="r"><use transform="matrix(0.0126953125,0,0,0.0126953125,0,0)" xlink:href="#aN"/><use transform="matrix(0.0126953125,0,0,0.0126953125,16.173828125,0)" xlink:href="#az"/><use transform="matrix(0.0126953125,0,0,0.0126953125,30.7734375,0)" xlink:href="#aB"/><use transform="matrix(0.0126953125,0,0,0.0126953125,44.4970703125,0)" xlink:href="#aw"/><use transform="matrix(0.0126953125,0,0,0.0126953125,59.6552734375,0)" xlink:href="#aC"/></g><g id="s"><use transform="matrix(0.0126953125,0,0,0.0126953125,0,0)" xlink:href="#aN"/><use transform="matrix(0.0126953125,0,0,0.0126953125,16.173828125,0)" xlink:href="#az"/><use transform="matrix(0.0126953125,0,0,0.0126953125,30.7734375,0)" xlink:href="#aB"/><use transform="matrix(0.0126953125,0,0,0.0126953125,44.4970703125,0)" xlink:href="#aw"/></g><use transform="matrix(0.0126953125,0,0,0.0126953125,0,0)" xlink:href="#aM" id="t"/><path d="M226-283v-166h904v166H226zm0-434v-166h904v166H226" id="aO"/><use transform="matrix(0.0126953125,0,0,0.0126953125,0,0)" xlink:href="#aO" id="u"/><path d="M218-607c0-325 108-727 258-974h175c-155 315-250 682-250 974 0 265 78 531 250 886H476C306-10 218-315 218-607" id="aP"/><g id="v"><use transform="matrix(0.0126953125,0,0,0.0126953125,0,0)" xlink:href="#aP"/><use transform="matrix(0.0126953125,0,0,0.0126953125,9.4833984375,0)" xlink:href="#aN"/><use transform="matrix(0.0126953125,0,0,0.0126953125,25.6572265625,0)" xlink:href="#az"/><use transform="matrix(0.0126953125,0,0,0.0126953125,40.2568359375,0)" xlink:href="#aB"/><use transform="matrix(0.0126953125,0,0,0.0126953125,53.98046875,0)" xlink:href="#aw"/></g><path d="M441-652l13-317-268 171-72-126 282-146-282-146 72-128 268 171-13-317h144l-12 317 267-171 72 128-282 146 282 146-72 126-267-171 12 317H441" id="aQ"/><use transform="matrix(0.0126953125,0,0,0.0126953125,0,0)" xlink:href="#aQ" id="w"/><g id="x"><use transform="matrix(0.0126953125,0,0,0.0126953125,0,0)" xlink:href="#az"/><use transform="matrix(0.0126953125,0,0,0.0126953125,14.599609375,0)" xlink:href="#aH"/><use transform="matrix(0.0126953125,0,0,0.0126953125,21.27734375,0)" xlink:href="#aF"/><use transform="matrix(0.0126953125,0,0,0.0126953125,29.783203125,0)" xlink:href="#ax"/><use transform="matrix(0.0126953125,0,0,0.0126953125,45.1572265625,0)" xlink:href="#aA"/><use transform="matrix(0.0126953125,0,0,0.0126953125,54.9453125,0)" xlink:href="#az"/><use transform="matrix(0.0126953125,0,0,0.0126953125,69.544921875,0)" xlink:href="#aE"/></g><path d="M692-1560L212 224H46l480-1784h166" id="aR"/><use transform="matrix(0.0126953125,0,0,0.0126953125,0,0)" xlink:href="#aR" id="y"/><use transform="matrix(0.0126953125,0,0,0.0126953125,0,0)" xlink:href="#aI" id="z"/><path d="M232-923l-22-567h194l-22 567H232zm340 0l-22-567h194l-22 567H572" id="aS"/><path d="M180 0v-1490h908v168H370v486h669v168H370v500h727V0H180" id="aT"/><g id="A"><use transform="matrix(0.0126953125,0,0,0.0126953125,0,0)" xlink:href="#aS"/><use transform="matrix(0.0126953125,0,0,0.0126953125,12.111328125,0)" xlink:href="#aT"/><use transform="matrix(0.0126953125,0,0,0.0126953125,27.7392578125,0)" xlink:href="#aH"/></g><g id="B"><use transform="matrix(0.0126953125,0,0,0.0126953125,0,0)" xlink:href="#aw"/><use transform="matrix(0.0126953125,0,0,0.0126953125,15.158203125,0)" xlink:href="#aB"/><use transform="matrix(0.0126953125,0,0,0.0126953125,28.8818359375,0)" xlink:href="#aC"/></g><path d="M128 359l88-567h206L266 359H128" id="aU"/><g id="C"><use transform="matrix(0.0126953125,0,0,0.0126953125,0,0)" xlink:href="#aS"/><use transform="matrix(0.0126953125,0,0,0.0126953125,9.978515625,0)" xlink:href="#aU"/></g><use transform="matrix(0.0126953125,0,0,0.0126953125,0,0)" xlink:href="#aM" id="D"/><g id="E"><use transform="matrix(0.0126953125,0,0,0.0126953125,0,0)" xlink:href="#aq"/><use transform="matrix(0.0126953125,0,0,0.0126953125,6.982421875,0)" xlink:href="#ar"/><use transform="matrix(0.0126953125,0,0,0.0126953125,22.34375,0)" xlink:href="#aG"/><use transform="matrix(0.0126953125,0,0,0.0126953125,38.2890625,0)" xlink:href="#aA"/><use transform="matrix(0.0126953125,0,0,0.0126953125,47.6455078125,0)" xlink:href="#aw"/><use transform="matrix(0.0126953125,0,0,0.0126953125,62.8037109375,0)" xlink:href="#aB"/><use transform="matrix(0.0126953125,0,0,0.0126953125,76.52734375,0)" xlink:href="#aw"/></g><g id="F"><use transform="matrix(0.0126953125,0,0,0.0126953125,0,0)" xlink:href="#aA"/><use transform="matrix(0.0126953125,0,0,0.0126953125,9.7880859375,0)" xlink:href="#az"/><use transform="matrix(0.0126953125,0,0,0.0126953125,24.3876953125,0)" xlink:href="#ay"/><use transform="matrix(0.0126953125,0,0,0.0126953125,40.3076171875,0)" xlink:href="#as"/><use transform="matrix(0.0126953125,0,0,0.0126953125,46.6044921875,0)" xlink:href="#au"/><use transform="matrix(0.0126953125,0,0,0.0126953125,62.1943359375,0)" xlink:href="#aC"/></g><g id="G"><use transform="matrix(0.0126953125,0,0,0.0126953125,0,0)" xlink:href="#aA"/><use transform="matrix(0.0126953125,0,0,0.0126953125,9.7880859375,0)" xlink:href="#az"/><use transform="matrix(0.0126953125,0,0,0.0126953125,24.3876953125,0)" xlink:href="#ay"/><use transform="matrix(0.0126953125,0,0,0.0126953125,40.3076171875,0)" xlink:href="#as"/><use transform="matrix(0.0126953125,0,0,0.0126953125,46.6044921875,0)" xlink:href="#au"/></g><path d="M180 0v-1490h510c348 0 508 209 508 474 0 266-160 477-507 477H370V0H180zm190-706h312c236 0 327-133 327-310 0-176-91-307-329-307H370v617" id="aV"/><g id="H"><use transform="matrix(0.0126953125,0,0,0.0126953125,0,0)" xlink:href="#aV"/><use transform="matrix(0.0126953125,0,0,0.0126953125,16.60546875,0)" xlink:href="#aq"/></g><path d="M82-814l301-629h199l301 629H706l-217-471h-13L261-814H82" id="aW"/><g id="I"><use transform="matrix(0.0126953125,0,0,0.0126953125,0,0)" xlink:href="#aA"/><use transform="matrix(0.0126953125,0,0,0.0126953125,9.7880859375,0)" xlink:href="#az"/><use transform="matrix(0.0126953125,0,0,0.0126953125,24.3876953125,0)" xlink:href="#ay"/><use transform="matrix(0.0126953125,0,0,0.0126953125,40.3076171875,0)" xlink:href="#as"/><use transform="matrix(0.0126953125,0,0,0.0126953125,46.6044921875,0)" xlink:href="#au"/><use transform="matrix(0.0126953125,0,0,0.0126953125,62.1943359375,0)" xlink:href="#aW"/><use transform="matrix(0.0126953125,0,0,0.0126953125,74.4453125,0)" xlink:href="#aI"/></g><path d="M789 20c-398 0-667-293-667-764 0-473 273-766 655-766 315 0 558 198 612 487h-196c-61-191-204-311-415-311-262 0-471 207-471 590 0 380 208 588 482 588 249 0 420-165 425-427H828v-166h572v163c0 370-256 606-611 606" id="aX"/><g id="J"><use transform="matrix(0.0126953125,0,0,0.0126953125,0,0)" xlink:href="#aX"/><use transform="matrix(0.0126953125,0,0,0.0126953125,19.3984375,0)" xlink:href="#aA"/><use transform="matrix(0.0126953125,0,0,0.0126953125,29.1865234375,0)" xlink:href="#az"/><use transform="matrix(0.0126953125,0,0,0.0126953125,43.7861328125,0)" xlink:href="#at"/><use transform="matrix(0.0126953125,0,0,0.0126953125,58.6396484375,0)" xlink:href="#as"/><use transform="matrix(0.0126953125,0,0,0.0126953125,64.9365234375,0)" xlink:href="#az"/><use transform="matrix(0.0126953125,0,0,0.0126953125,79.5361328125,0)" xlink:href="#aB"/></g><g id="K"><use transform="matrix(0.0126953125,0,0,0.0126953125,0,0)" xlink:href="#aL"/><use transform="matrix(0.0126953125,0,0,0.0126953125,15.919921875,0)" xlink:href="#au"/><use transform="matrix(0.0126953125,0,0,0.0126953125,31.509765625,0)" xlink:href="#aA"/></g><g id="L"><use transform="matrix(0.0126953125,0,0,0.0126953125,0,0)" xlink:href="#ax"/><use transform="matrix(0.0126953125,0,0,0.0126953125,15.3740234375,0)" xlink:href="#aB"/><use transform="matrix(0.0126953125,0,0,0.0126953125,29.09765625,0)" xlink:href="#az"/><use transform="matrix(0.0126953125,0,0,0.0126953125,43.697265625,0)" xlink:href="#aA"/></g><g id="M"><use transform="matrix(0.0126953125,0,0,0.0126953125,0,0)" xlink:href="#aw"/><use transform="matrix(0.0126953125,0,0,0.0126953125,15.158203125,0)" xlink:href="#aH"/></g><path d="M158 0v-1118h175l1 205c55-151 181-225 313-225 147 0 245 90 285 228 53-141 190-228 352-228 194 0 352 125 352 384V0h-181v-749c0-161-105-225-225-225-151 0-243 103-243 244V0H807v-767c0-124-93-207-219-207-131 0-250 92-250 270V0H158" id="aY"/><g id="N"><use transform="matrix(0.0126953125,0,0,0.0126953125,0,0)" xlink:href="#aL"/><use transform="matrix(0.0126953125,0,0,0.0126953125,15.919921875,0)" xlink:href="#aA"/><use transform="matrix(0.0126953125,0,0,0.0126953125,25.2763671875,0)" xlink:href="#au"/><use transform="matrix(0.0126953125,0,0,0.0126953125,40.8662109375,0)" xlink:href="#aG"/><use transform="matrix(0.0126953125,0,0,0.0126953125,56.8115234375,0)" xlink:href="#aA"/><use transform="matrix(0.0126953125,0,0,0.0126953125,66.599609375,0)" xlink:href="#az"/><use transform="matrix(0.0126953125,0,0,0.0126953125,81.19921875,0)" xlink:href="#aY"/><use transform="matrix(0.0126953125,0,0,0.0126953125,103.974609375,0)" xlink:href="#az"/></g><g id="O"><use transform="matrix(0.0126953125,0,0,0.0126953125,0,0)" xlink:href="#aN"/><use transform="matrix(0.0126953125,0,0,0.0126953125,16.173828125,0)" xlink:href="#az"/><use transform="matrix(0.0126953125,0,0,0.0126953125,30.7734375,0)" xlink:href="#aB"/><use transform="matrix(0.0126953125,0,0,0.0126953125,44.4970703125,0)" xlink:href="#aw"/></g><path d="M1181-520L237-44v-194l712-338v-12L237-926v-196l944 476v126" id="aZ"/><g id="P"><use transform="matrix(0.0126953125,0,0,0.0126953125,0,0)" xlink:href="#aZ"/><use transform="matrix(0.0126953125,0,0,0.0126953125,17.2021484375,0)" xlink:href="#aO"/></g><path d="M646 20c-332 0-524-278-524-764 0-483 194-766 524-766s524 283 524 766c0 485-191 764-524 764zm0-166c218 0 341-220 341-598 0-380-123-601-341-601s-341 222-341 601c0 378 123 598 341 598" id="ba"/><use transform="matrix(0.0126953125,0,0,0.0126953125,0,0)" xlink:href="#ba" id="Q"/><path d="M580 20c-295 0-476-179-476-409 0-189 123-290 294-416-104-125-173-226-173-362 0-197 144-337 365-337 224 0 362 144 362 321 0 185-174 312-306 405l319 387c38-75 61-165 61-267h173c0 208-62 332-120 406L1287 0h-217L967-124C868-27 716 20 580 20zm279-273L507-675l-51 38c-123 91-167 162-167 254 0 147 113 246 278 246 107 0 210-41 292-116zM538-908l97-72c54-40 136-101 136-206 0-95-68-163-176-163-113 0-189 74-189 181 0 90 53 164 132 260" id="bb"/><g id="R"><use transform="matrix(0.0126953125,0,0,0.0126953125,0,0)" xlink:href="#bb"/><use transform="matrix(0.0126953125,0,0,0.0126953125,16.7451171875,0)" xlink:href="#bb"/></g><g id="S"><use transform="matrix(0.0126953125,0,0,0.0126953125,0,0)" xlink:href="#az"/><use transform="matrix(0.0126953125,0,0,0.0126953125,14.599609375,0)" xlink:href="#aH"/><use transform="matrix(0.0126953125,0,0,0.0126953125,21.27734375,0)" xlink:href="#aF"/><use transform="matrix(0.0126953125,0,0,0.0126953125,29.783203125,0)" xlink:href="#ax"/><use transform="matrix(0.0126953125,0,0,0.0126953125,45.1572265625,0)" xlink:href="#aA"/><use transform="matrix(0.0126953125,0,0,0.0126953125,54.9453125,0)" xlink:href="#az"/></g><use transform="matrix(0.0126953125,0,0,0.0126953125,0,0)" xlink:href="#ba" id="T"/><path d="M180 0v-1490h224l606 953c40 63 108 177 176 312-27-437-7-821-13-1265h190V0h-226C860-448 622-778 356-1262c27 476 11 792 15 1262H180" id="bc"/><g id="U"><use transform="matrix(0.0126953125,0,0,0.0126953125,0,0)" xlink:href="#bc"/><use transform="matrix(0.0126953125,0,0,0.0126953125,19.5888671875,0)" xlink:href="#au"/></g><g id="V"><use transform="matrix(0.0126953125,0,0,0.0126953125,0,0)" xlink:href="#aL"/><use transform="matrix(0.0126953125,0,0,0.0126953125,15.919921875,0)" xlink:href="#ax"/><use transform="matrix(0.0126953125,0,0,0.0126953125,31.2939453125,0)" xlink:href="#aw"/><use transform="matrix(0.0126953125,0,0,0.0126953125,46.4521484375,0)" xlink:href="#ay"/><use transform="matrix(0.0126953125,0,0,0.0126953125,62.3720703125,0)" xlink:href="#aw"/></g><g id="W"><use transform="matrix(0.0126953125,0,0,0.0126953125,0,0)" xlink:href="#aq"/><use transform="matrix(0.0126953125,0,0,0.0126953125,6.982421875,0)" xlink:href="#ar"/><use transform="matrix(0.0126953125,0,0,0.0126953125,22.34375,0)" xlink:href="#aG"/><use transform="matrix(0.0126953125,0,0,0.0126953125,38.2890625,0)" xlink:href="#aA"/><use transform="matrix(0.0126953125,0,0,0.0126953125,47.6455078125,0)" xlink:href="#aw"/><use transform="matrix(0.0126953125,0,0,0.0126953125,62.8037109375,0)" xlink:href="#aB"/><use transform="matrix(0.0126953125,0,0,0.0126953125,76.52734375,0)" xlink:href="#az"/><use transform="matrix(0.0126953125,0,0,0.0126953125,91.126953125,0)" xlink:href="#aA"/></g><g id="X"><use transform="matrix(0.0126953125,0,0,0.0126953125,0,0)" xlink:href="#ar"/><use transform="matrix(0.0126953125,0,0,0.0126953125,15.361328125,0)" xlink:href="#ax"/><use transform="matrix(0.0126953125,0,0,0.0126953125,30.7353515625,0)" xlink:href="#aY"/><use transform="matrix(0.0126953125,0,0,0.0126953125,53.5107421875,0)" xlink:href="#aw"/><use transform="matrix(0.0126953125,0,0,0.0126953125,68.6689453125,0)" xlink:href="#aA"/><use transform="matrix(0.0126953125,0,0,0.0126953125,78.025390625,0)" xlink:href="#au"/><use transform="matrix(0.0126953125,0,0,0.0126953125,93.615234375,0)" xlink:href="#aB"/></g><path d="M481 0L54-1118h197c107 314 236 620 325 951 87-331 217-637 324-951h197L670 0H481" id="bd"/><g id="Y"><use transform="matrix(0.0126953125,0,0,0.0126953125,0,0)" xlink:href="#ar"/><use transform="matrix(0.0126953125,0,0,0.0126953125,15.361328125,0)" xlink:href="#aw"/><use transform="matrix(0.0126953125,0,0,0.0126953125,30.51953125,0)" xlink:href="#aG"/><use transform="matrix(0.0126953125,0,0,0.0126953125,46.46484375,0)" xlink:href="#az"/><use transform="matrix(0.0126953125,0,0,0.0126953125,61.064453125,0)" xlink:href="#aF"/><use transform="matrix(0.0126953125,0,0,0.0126953125,69.5703125,0)" xlink:href="#as"/><use transform="matrix(0.0126953125,0,0,0.0126953125,75.8671875,0)" xlink:href="#bd"/><use transform="matrix(0.0126953125,0,0,0.0126953125,89.9716796875,0)" xlink:href="#au"/><use transform="matrix(0.0126953125,0,0,0.0126953125,105.5615234375,0)" xlink:href="#aB"/></g><g id="Z"><use transform="matrix(0.0126953125,0,0,0.0126953125,0,0)" xlink:href="#aA"/><use transform="matrix(0.0126953125,0,0,0.0126953125,9.7880859375,0)" xlink:href="#az"/><use transform="matrix(0.0126953125,0,0,0.0126953125,24.3876953125,0)" xlink:href="#ay"/><use transform="matrix(0.0126953125,0,0,0.0126953125,40.3076171875,0)" xlink:href="#as"/><use transform="matrix(0.0126953125,0,0,0.0126953125,46.6044921875,0)" xlink:href="#au"/></g><g id="aa"><use transform="matrix(0.0126953125,0,0,0.0126953125,0,0)" xlink:href="#at"/><use transform="matrix(0.0126953125,0,0,0.0126953125,14.853515625,0)" xlink:href="#ax"/><use transform="matrix(0.0126953125,0,0,0.0126953125,30.2275390625,0)" xlink:href="#az"/><use transform="matrix(0.0126953125,0,0,0.0126953125,44.8271484375,0)" xlink:href="#ay"/><use transform="matrix(0.0126953125,0,0,0.0126953125,60.7470703125,0)" xlink:href="#aA"/><use transform="matrix(0.0126953125,0,0,0.0126953125,70.53515625,0)" xlink:href="#az"/><use transform="matrix(0.0126953125,0,0,0.0126953125,85.134765625,0)" xlink:href="#ay"/><use transform="matrix(0.0126953125,0,0,0.0126953125,101.0546875,0)" xlink:href="#au"/></g><g id="ab"><use transform="matrix(0.0126953125,0,0,0.0126953125,0,0)" xlink:href="#as"/><use transform="matrix(0.0126953125,0,0,0.0126953125,6.296875,0)" xlink:href="#ar"/><use transform="matrix(0.0126953125,0,0,0.0126953125,21.658203125,0)" xlink:href="#aG"/><use transform="matrix(0.0126953125,0,0,0.0126953125,37.603515625,0)" xlink:href="#aA"/><use transform="matrix(0.0126953125,0,0,0.0126953125,46.9599609375,0)" xlink:href="#aw"/><use transform="matrix(0.0126953125,0,0,0.0126953125,62.1181640625,0)" xlink:href="#aB"/><use transform="matrix(0.0126953125,0,0,0.0126953125,75.841796875,0)" xlink:href="#aw"/></g><g id="ac"><use transform="matrix(0.0126953125,0,0,0.0126953125,0,0)" xlink:href="#az"/><use transform="matrix(0.0126953125,0,0,0.0126953125,14.599609375,0)" xlink:href="#aH"/><use transform="matrix(0.0126953125,0,0,0.0126953125,21.27734375,0)" xlink:href="#aF"/><use transform="matrix(0.0126953125,0,0,0.0126953125,29.783203125,0)" xlink:href="#ax"/><use transform="matrix(0.0126953125,0,0,0.0126953125,45.1572265625,0)" xlink:href="#aA"/><use transform="matrix(0.0126953125,0,0,0.0126953125,54.9453125,0)" xlink:href="#az"/><use transform="matrix(0.0126953125,0,0,0.0126953125,69.544921875,0)" xlink:href="#aC"/></g><g id="ad"><use transform="matrix(0.0126953125,0,0,0.0126953125,0,0)" xlink:href="#az"/><use transform="matrix(0.0126953125,0,0,0.0126953125,14.599609375,0)" xlink:href="#aH"/><use transform="matrix(0.0126953125,0,0,0.0126953125,21.27734375,0)" xlink:href="#aF"/><use transform="matrix(0.0126953125,0,0,0.0126953125,29.783203125,0)" xlink:href="#ax"/><use transform="matrix(0.0126953125,0,0,0.0126953125,45.1572265625,0)" xlink:href="#aA"/><use transform="matrix(0.0126953125,0,0,0.0126953125,54.9453125,0)" xlink:href="#az"/></g><g id="ae"><use transform="matrix(0.0126953125,0,0,0.0126953125,0,0)" xlink:href="#az"/><use transform="matrix(0.0126953125,0,0,0.0126953125,14.599609375,0)" xlink:href="#aH"/><use transform="matrix(0.0126953125,0,0,0.0126953125,21.27734375,0)" xlink:href="#aF"/><use transform="matrix(0.0126953125,0,0,0.0126953125,29.783203125,0)" xlink:href="#ax"/><use transform="matrix(0.0126953125,0,0,0.0126953125,45.1572265625,0)" xlink:href="#aA"/><use transform="matrix(0.0126953125,0,0,0.0126953125,54.9453125,0)" xlink:href="#az"/><use transform="matrix(0.0126953125,0,0,0.0126953125,69.544921875,0)" xlink:href="#aE"/></g><path d="M180 0v-1490h901v168H370v510h643v168H370V0H180" id="be"/><g id="af"><use transform="matrix(0.0126953125,0,0,0.0126953125,0,0)" xlink:href="#be"/><use transform="matrix(0.0126953125,0,0,0.0126953125,15.3486328125,0)" xlink:href="#as"/><use transform="matrix(0.0126953125,0,0,0.0126953125,21.6455078125,0)" xlink:href="#ar"/></g><path d="M600 0L52-1490h200c166 485 304 806 458 1336 156-533 285-846 449-1336h202L819 0H600" id="bf"/><use transform="matrix(0.01953125,0,0,0.01953125,0,0)" xlink:href="#bf" id="ag"/><use transform="matrix(0.01953125,0,0,0.01953125,0,0)" xlink:href="#be" id="ah"/><g id="ai"><use transform="matrix(0.0126953125,0,0,0.0126953125,0,0)" xlink:href="#at"/><use transform="matrix(0.0126953125,0,0,0.0126953125,14.853515625,0)" xlink:href="#as"/><use transform="matrix(0.0126953125,0,0,0.0126953125,21.150390625,0)" xlink:href="#aA"/><use transform="matrix(0.0126953125,0,0,0.0126953125,30.5068359375,0)" xlink:href="#at"/><use transform="matrix(0.0126953125,0,0,0.0126953125,45.3603515625,0)" xlink:href="#ax"/><use transform="matrix(0.0126953125,0,0,0.0126953125,60.734375,0)" xlink:href="#aH"/><use transform="matrix(0.0126953125,0,0,0.0126953125,67.03125,0)" xlink:href="#au"/></g><use transform="matrix(0.01953125,0,0,0.01953125,0,0)" xlink:href="#aD" id="aj"/><use transform="matrix(0.01953125,0,0,0.01953125,0,0)" xlink:href="#aI" id="ak"/><use transform="matrix(0.01953125,0,0,0.01953125,0,0)" xlink:href="#aJ" id="al"/><use transform="matrix(0.01953125,0,0,0.01953125,0,0)" xlink:href="#aK" id="am"/><path d="M784 20c-382 0-662-292-662-764 0-473 280-766 662-766s660 293 660 766c0 472-278 764-660 764zm0-176c266 0 475-207 475-588 0-383-209-590-475-590-268 0-477 208-477 590 0 380 209 588 477 588" id="bg"/><g id="an"><use transform="matrix(0.0126953125,0,0,0.0126953125,0,0)" xlink:href="#bg"/><use transform="matrix(0.0126953125,0,0,0.0126953125,19.880859375,0)" xlink:href="#aL"/><use transform="matrix(0.0126953125,0,0,0.0126953125,35.80078125,0)" xlink:href="#at"/><use transform="matrix(0.0126953125,0,0,0.0126953125,50.654296875,0)" xlink:href="#as"/><use transform="matrix(0.0126953125,0,0,0.0126953125,56.951171875,0)" xlink:href="#au"/><use transform="matrix(0.0126953125,0,0,0.0126953125,72.541015625,0)" xlink:href="#ar"/></g><g id="ao"><use transform="matrix(0.0126953125,0,0,0.0126953125,0,0)" xlink:href="#as"/><use transform="matrix(0.0126953125,0,0,0.0126953125,6.296875,0)" xlink:href="#ar"/><use transform="matrix(0.0126953125,0,0,0.0126953125,21.27734375,0)" xlink:href="#bd"/><use transform="matrix(0.0126953125,0,0,0.0126953125,35.7626953125,0)" xlink:href="#az"/><use transform="matrix(0.0126953125,0,0,0.0126953125,50.3623046875,0)" xlink:href="#aH"/><use transform="matrix(0.0126953125,0,0,0.0126953125,56.6591796875,0)" xlink:href="#as"/><use transform="matrix(0.0126953125,0,0,0.0126953125,62.9560546875,0)" xlink:href="#ay"/><use transform="matrix(0.0126953125,0,0,0.0126953125,78.8759765625,0)" xlink:href="#az"/></g><g id="ap"><use transform="matrix(0.01953125,0,0,0.01953125,0,0)" xlink:href="#au"/><use transform="matrix(0.01953125,0,0,0.01953125,23.984375,0)" xlink:href="#aF"/><use transform="matrix(0.01953125,0,0,0.01953125,37.0703125,0)" xlink:href="#aA"/><use transform="matrix(0.01953125,0,0,0.01953125,51.46484375,0)" xlink:href="#au"/></g></defs></g></svg>