<svg xmlns="http://www.w3.org/2000/svg" xmlns:xlink="http://www.w3.org/1999/xlink" xmlns:lucid="lucid" width="2938.59" height="3465.84"><g transform="translate(578.1848997630048 -269.6666666666667)" lucid:page-tab-id="0_0"><path d="M610 270.67c16.57 0 30 13.43 30 30 0 16.56-13.43 30-30 30H392.67c-16.57 0-30-13.44-30-30 0-16.57 13.43-30 30-30z" stroke="#000" stroke-width="2" fill="#fff"/><use xlink:href="#a" transform="matrix(1,0,0,1,376.53333333333336,273.6666666666667) translate(92.3095703125 35.3125)"/><path d="M501.33 333.17v85.67" stroke="#3a414a" stroke-width="3" stroke-linejoin="round" fill="none"/><path d="M502.8 333.2h-2.94v-1.53h2.95z" stroke="#3a414a" stroke-width=".05" fill="#3a414a"/><path d="M501.33 433.33l-7.5-13h15z" stroke="#3a414a" stroke-width="3" fill="#3a414a"/><path d="M308 443.13a7.8 7.8 0 0 1 7.56-5.8H744a4.6 4.6 0 0 1 4.45 5.8l-53.8 201.74a7.8 7.8 0 0 1-7.54 5.8H258.68a4.6 4.6 0 0 1-4.46-5.8z" stroke="#000" stroke-width="2" fill="#aee9aa" fill-opacity=".96"/><use xlink:href="#b" transform="matrix(1,0,0,1,277.5333333333334,448) translate(142.87267578125 31.1875)"/><use xlink:href="#c" transform="matrix(1,0,0,1,277.5333333333334,448) translate(219.56505859375 31.1875)"/><use xlink:href="#d" transform="matrix(1,0,0,1,277.5333333333334,448) translate(257.95568359375 31.1875)"/><use xlink:href="#e" transform="matrix(1,0,0,1,277.5333333333334,448) translate(134.59728515625 68.93828124999999)"/><use xlink:href="#f" transform="matrix(1,0,0,1,277.5333333333334,448) translate(161.96837890625 68.93828124999999)"/><use xlink:href="#g" transform="matrix(1,0,0,1,277.5333333333334,448) translate(223.24865234375 68.93828124999999)"/><use xlink:href="#h" transform="matrix(1,0,0,1,277.5333333333334,448) translate(134.72814453125 106.68906249999999)"/><use xlink:href="#f" transform="matrix(1,0,0,1,277.5333333333334,448) translate(167.38048828125 106.68906249999999)"/><use xlink:href="#i" transform="matrix(1,0,0,1,277.5333333333334,448) translate(228.66076171875 106.68906249999999)"/><use xlink:href="#j" transform="matrix(1,0,0,1,277.5333333333334,448) translate(109.10986328125 144.43984375)"/><use xlink:href="#f" transform="matrix(1,0,0,1,277.5333333333334,448) translate(141.96533203125 144.43984375)"/><use xlink:href="#k" transform="matrix(1,0,0,1,277.5333333333334,448) translate(203.24560546875 144.43984375)"/><use xlink:href="#l" transform="matrix(1,0,0,1,277.5333333333334,448) translate(167.3515625 182.19062499999998)"/><use xlink:href="#m" transform="matrix(1,0,0,1,277.5333333333334,448) translate(200.943359375 182.19062499999998)"/><path d="M501.33 653.17v87.67" stroke="#3a414a" stroke-width="3" stroke-linejoin="round" fill="none"/><path d="M502.8 653.2h-2.94v-1.53h2.95z" stroke="#3a414a" stroke-width=".05" fill="#3a414a"/><path d="M501.33 755.33l-7.5-13h15z" stroke="#3a414a" stroke-width="3" fill="#3a414a"/><path d="M451.8 765.13a7.8 7.8 0 0 1 7.53-5.8h116a4.6 4.6 0 0 1 4.46 5.8l-28.92 108.4a7.8 7.8 0 0 1-7.55 5.8h-116a4.6 4.6 0 0 1-4.45-5.8z" stroke="#000" stroke-width="2" fill="#e39b9b"/><use xlink:href="#n" transform="matrix(1,0,0,1,429.33333333333337,765.3333333333334) translate(30.199335937499995 62.3125)"/><path d="M501.33 881.83v50.7" stroke="#3a414a" stroke-width="3" stroke-linejoin="round" fill="none"/><path d="M502.8 881.87h-2.94v-1.54h2.95z" stroke="#3a414a" stroke-width=".05" fill="#3a414a"/><path d="M501.33 947l-7.5-12.98h15z" stroke="#3a414a" stroke-width="3" fill="#3a414a"/><path d="M496.2 952.44a9.9 9.9 0 0 1 10.27 0l119.73 72.45a3.63 3.63 0 0 1 0 6.2l-119.73 72.46a9.9 9.9 0 0 1-10.27 0l-119.73-72.45a3.63 3.63 0 0 1 0-6.2z" stroke="#000" stroke-width="2" fill="#fff"/><use xlink:href="#o" transform="matrix(1,0,0,1,384.33333333333337,957.2) translate(45.39708984375 78.4375)"/><use xlink:href="#p" transform="matrix(1,0,0,1,384.33333333333337,957.2) translate(136.32091796875 78.4375)"/><use xlink:href="#q" transform="matrix(1,0,0,1,384.33333333333337,957.2) translate(178.03771484375 78.4375)"/><path d="M372.2 1028.03l-7.2.15-8.08.5-7.6.8-7.18 1.06-6.83 1.3-6.54 1.54-6.32 1.76-6.14 2-6 2.24-5.94 2.5-5.9 2.77-5.93 3.1-6.02 3.47-6.18 3.93-6.48 4.5-6.94 5.28-7.7 6.4-9.2 8.27-13.2 12.98-43.3 44.44-9.17 8.28-7.72 6.4-6.93 5.27-6.48 4.5-6.2 3.93-6 3.48-5.94 3.1-5.9 2.77-5.93 2.5-6.02 2.23-6.13 2-6.32 1.76-6.55 1.54-6.83 1.3-7.18 1.06-6.93.73" stroke="#3a414a" stroke-width="3" stroke-linejoin="round" fill="none"/><path d="M373.8 1027.06l-.1.94.1.94.18.53-1.78.04-.06-2.94 1.84-.04z" stroke="#3a414a" stroke-width=".05" fill="#3a414a"/><path d="M72.8 1188.5l12.66-8.06.65 14.98z" stroke="#3a414a" stroke-width="3" fill="#3a414a"/><path d="M-185.04 1133.1a7.8 7.8 0 0 1 7.54-5.8H79.13a4.6 4.6 0 0 1 4.45 5.8l-29.62 111.06a7.8 7.8 0 0 1-7.55 5.8h-256.6a4.6 4.6 0 0 1-4.46-5.8z" stroke="#000" stroke-width="2" fill="#aee9aa" fill-opacity=".96"/><use xlink:href="#r" transform="matrix(1,0,0,1,-201.1414412407144,1133.424913125435) translate(30.418085937500003 63.34375)"/><use xlink:href="#c" transform="matrix(1,0,0,1,-201.1414412407144,1133.424913125435) translate(95.03722656250001 63.34375)"/><use xlink:href="#s" transform="matrix(1,0,0,1,-201.1414412407144,1133.424913125435) translate(133.4278515625 63.34375)"/><path d="M-65.54 1252.46v60.34" stroke="#3a414a" stroke-width="3" stroke-linejoin="round" fill="none"/><path d="M-64.07 1252.5h-2.95v-1.54h2.95z" stroke="#3a414a" stroke-width=".05" fill="#3a414a"/><path d="M-65.54 1327.3l-7.5-13h15z" stroke="#3a414a" stroke-width="3" fill="#3a414a"/><path d="M-157.93 1337.1a7.8 7.8 0 0 1 7.54-5.8H53.8a4.6 4.6 0 0 1 4.45 5.8l-31.4 117.73a7.8 7.8 0 0 1-7.55 5.8h-204.18a4.6 4.6 0 0 1-4.45-5.8z" stroke="#000" stroke-width="2" fill="#aee9aa" fill-opacity=".96"/><use xlink:href="#t" transform="matrix(1,0,0,1,-178.34144124071443,1337.7582464587686) translate(29.433222656250003 69.0625)"/><use xlink:href="#u" transform="matrix(1,0,0,1,-178.34144124071443,1337.7582464587686) translate(128.43126953125 69.0625)"/><path d="M-65.54 1463.13v53" stroke="#3a414a" stroke-width="3" stroke-linejoin="round" fill="none"/><path d="M-64.07 1463.16h-2.95v-1.54h2.95z" stroke="#3a414a" stroke-width=".05" fill="#3a414a"/><path d="M-65.54 1530.63l-7.5-13h15z" stroke="#3a414a" stroke-width="3" fill="#3a414a"/><path d="M-115.1 1540.42a7.8 7.8 0 0 1 7.56-5.8h116a4.6 4.6 0 0 1 4.45 5.8l-28.9 108.4a7.8 7.8 0 0 1-7.54 5.8h-116a4.6 4.6 0 0 1-4.46-5.8z" stroke="#000" stroke-width="2" fill="#e39b9b"/><use xlink:href="#v" transform="matrix(1,0,0,1,-137.54144124071442,1540.6249131254351) translate(42.177363281249995 62.3125)"/><path d="M-577.18 2448.46a6 6 0 0 1 6-6h341.33a6 6 0 0 1 6 6v76a6 6 0 0 1-6 6h-341.33a6 6 0 0 1-6-6z" stroke="#000" stroke-width="2" fill="#fff"/><use xlink:href="#w" transform="matrix(1,0,0,1,-559.5182330963381,2446.858688073983) translate(26.283203125 50.1875)"/><use xlink:href="#x" transform="matrix(1,0,0,1,-559.5182330963381,2446.858688073983) translate(51.5341796875 50.1875)"/><use xlink:href="#y" transform="matrix(1,0,0,1,-559.5182330963381,2446.858688073983) translate(76.048828125 50.1875)"/><use xlink:href="#z" transform="matrix(1,0,0,1,-559.5182330963381,2446.858688073983) translate(152.5 50.1875)"/><use xlink:href="#A" transform="matrix(1,0,0,1,-559.5182330963381,2446.858688073983) translate(172.837890625 50.1875)"/><use xlink:href="#B" transform="matrix(1,0,0,1,-559.5182330963381,2446.858688073983) translate(259.1787109375 50.1875)"/><use xlink:href="#C" transform="matrix(1,0,0,1,-559.5182330963381,2446.858688073983) translate(275.8603515625 50.1875)"/><path d="M-400.46 2532.96l.24 6.63.7 6.1 1.02 5.17 1.46 5.18 6.93 20.24.4 2.02" stroke="#3a414a" stroke-width="3" stroke-linejoin="round" fill="none"/><path d="M-399 2532.94l-2.94.1-.05-1.58h2.96z" stroke="#3a414a" stroke-width=".05" fill="#3a414a"/><path d="M-388.37 2592.72l-8.67-12.24 14.93-1.4z" stroke="#3a414a" stroke-width="3" fill="#3a414a"/><path d="M-497.3 2602.5a7.8 7.8 0 0 1 7.55-5.8h233.42a4.6 4.6 0 0 1 4.46 5.8l-27 101.3a7.8 7.8 0 0 1-7.56 5.8h-233.42a4.6 4.6 0 0 1-4.46-5.8z" stroke="#000" stroke-width="2" fill="#aee9aa" fill-opacity=".96"/><use xlink:href="#D" transform="matrix(1,0,0,1,-512.0752646414495,2602.3463098005986) translate(29.988398437500003 60.25)"/><use xlink:href="#f" transform="matrix(1,0,0,1,-512.0752646414495,2602.3463098005986) translate(71.33703125 60.25)"/><use xlink:href="#E" transform="matrix(1,0,0,1,-512.0752646414495,2602.3463098005986) translate(132.6173046875 60.25)"/><use xlink:href="#F" transform="matrix(1,0,0,1,-512.0752646414495,2602.3463098005986) translate(176.301875 60.25)"/><use xlink:href="#G" transform="matrix(1,0,0,1,-512.0752646414495,2602.3463098005986) translate(201.083125 60.25)"/><path d="M630.46 1027.96L745.7 1025l209.6-6.9 58.9 1.15 41.38 2.56 31.92 3.34 25.8 3.8 21.46 4.08 18.27 4.27 15.78 4.4 13.83 4.47 12.24 4.55 10.92 4.6 9.83 4.6 8.9 4.67 8.14 4.68 7.45 4.73 6.87 4.78 6.34 4.82 5.9 4.88 5.5 4.95 5.14 5.03 4.82 5.13 4.53 5.23 4.25 5.37 4 5.52 3.8 5.7 3.55 5.86 3.35 6.1 3.15 6.34 2.94 6.62 2.75 6.95 2.55 7.3 2.32 7.7 2.1 8.2 1.85 8.74 1.58 9.36 1.27 10.08.92 10.92.03.8" stroke="#3a414a" stroke-width="3" stroke-linejoin="round" fill="none"/><path d="M630.54 1029.43l-1.85.05.16-.54.1-.94-.1-.94-.17-.53 1.76-.04z" stroke="#3a414a" stroke-width=".05" fill="#3a414a"/><path d="M1320.1 1234.87l-7.9-12.75 15-.46z" stroke="#3a414a" stroke-width="3" fill="#3a414a"/><path d="M1315.16 1240.37a9.16 9.16 0 0 1 10.04 0l140.7 92.18a3.93 3.93 0 0 1 0 6.57l-140.7 92.18a9.16 9.16 0 0 1-10.04 0l-140.7-92.18a3.93 3.93 0 0 1 0-6.57z" stroke="#000" stroke-width="2" fill="#fff"/><use xlink:href="#o" transform="matrix(1,0,0,1,1184.506016718669,1246.9581837346168) translate(61.75646484375 97.5)"/><use xlink:href="#p" transform="matrix(1,0,0,1,1184.506016718669,1246.9581837346168) translate(152.68029296875 97.5)"/><use xlink:href="#C" transform="matrix(1,0,0,1,1184.506016718669,1246.9581837346168) translate(194.39708984375 97.5)"/><path d="M217.57 939.14a6 6 0 0 1 6-6h82.1a6 6 0 0 1 6 6v82.66a6 6 0 0 1-6 6h-82.1a6 6 0 0 1-6-6z" fill="none"/><use xlink:href="#H" transform="matrix(1,0,0,1,222.5721530824897,938.1427898871225) translate(0 57.05078125)"/><path d="M709.6 916a6 6 0 0 1 6-6h82.12a6 6 0 0 1 6 6v82.64a6 6 0 0 1-6 6h-82.1a6 6 0 0 1-6-6z" fill="none"/><use xlink:href="#I" transform="matrix(1,0,0,1,714.6122132087573,914.9908293320393) translate(0 57.05078125)"/><path d="M1170.16 1335.8l-11.3-.24-14.97-.95-17.95-1.9-22.38-3.3-29.95-5.77-49.54-11.75-139.33-35.94-23.3-4.48-16.42-2.44-12.62-1.34-10.13-.64-8.4-.18-7.15.14-6.15.38-5.4.57-4.76.7-4.26.8-3.85.9-3.5 1-3.2 1.03-2.96 1.1-2.73 1.14-2.53 1.2-2.38 1.24-2.25 1.3-2.1 1.33-2 1.38-1.9 1.44-1.8 1.5-1.73 1.55-1.66 1.62-1.6 1.68-1.5 1.77-1.5 1.86-1.4 1.96-1.38 2.07-1.32 2.18-1.28 2.34-1.23 2.48-1.2 2.66-1.12 2.87-1.08 3.1-1.02 3.37-.94 3.7-.88 4.06-.76 4.5-.4 3.25" stroke="#3a414a" stroke-width="3" stroke-linejoin="round" fill="none"/><path d="M1171.92 1334.37l-.15.5-.1.97.1.97.15.52-1.83-.04.06-2.95z" stroke="#3a414a" stroke-width=".05" fill="#3a414a"/><path d="M732.13 1345.48l-6.75-13.4 14.98.86z" stroke="#3a414a" stroke-width="3" fill="#3a414a"/><path d="M612.45 1355.27a7.8 7.8 0 0 1 7.55-5.8h256.62a4.6 4.6 0 0 1 4.45 5.8l-29.62 111.08a7.8 7.8 0 0 1-7.54 5.8H587.3a4.6 4.6 0 0 1-4.47-5.8z" stroke="#000" stroke-width="2" fill="#aee9aa" fill-opacity=".96"/><use xlink:href="#r" transform="matrix(1,0,0,1,596.3524847225981,1355.609612598846) translate(43.1895703125 63.34375)"/><use xlink:href="#c" transform="matrix(1,0,0,1,596.3524847225981,1355.609612598846) translate(107.80871093750001 63.34375)"/><use xlink:href="#J" transform="matrix(1,0,0,1,596.3524847225981,1355.609612598846) translate(146.1993359375 63.34375)"/><path d="M639.56 1559.27a7.8 7.8 0 0 1 7.55-5.8h204.2a4.6 4.6 0 0 1 4.44 5.8L824.34 1677a7.8 7.8 0 0 1-7.54 5.8H612.62a4.6 4.6 0 0 1-4.46-5.8z" stroke="#000" stroke-width="2" fill="#aee9aa" fill-opacity=".96"/><use xlink:href="#K" transform="matrix(1,0,0,1,619.1524847225979,1559.9429459321796) translate(28.163691406250003 69.0625)"/><use xlink:href="#L" transform="matrix(1,0,0,1,619.1524847225979,1559.9429459321796) translate(127.16173828125001 69.0625)"/><path d="M682.4 1762.6a7.8 7.8 0 0 1 7.55-5.8h116a4.6 4.6 0 0 1 4.46 5.8L781.5 1871a7.8 7.8 0 0 1-7.55 5.8h-116a4.6 4.6 0 0 1-4.45-5.8z" stroke="#000" stroke-width="2" fill="#e39b9b"/><use xlink:href="#M" transform="matrix(1,0,0,1,659.952484722598,1762.8096125988463) translate(40.907832031249995 62.3125)"/><path d="M270.23 2168.23a6 6 0 0 1 6-6h341.33a6 6 0 0 1 6 6v76a6 6 0 0 1-6 6H276.23a6 6 0 0 1-6-6z" stroke="#000" stroke-width="2" fill="#fff"/><use xlink:href="#w" transform="matrix(1,0,0,1,287.8920365697542,2166.633434464636) translate(63.34716796875 50.1875)"/><use xlink:href="#x" transform="matrix(1,0,0,1,287.8920365697542,2166.633434464636) translate(88.59814453125 50.1875)"/><use xlink:href="#N" transform="matrix(1,0,0,1,287.8920365697542,2166.633434464636) translate(113.11279296875 50.1875)"/><use xlink:href="#z" transform="matrix(1,0,0,1,287.8920365697542,2166.633434464636) translate(144.01318359375 50.1875)"/><use xlink:href="#O" transform="matrix(1,0,0,1,287.8920365697542,2166.633434464636) translate(164.35107421875 50.1875)"/><path d="M336.73 2324.5a7.8 7.8 0 0 1 7.54-5.8h234a4.6 4.6 0 0 1 4.47 5.8l-26.43 99.07a7.8 7.8 0 0 1-7.53 5.8h-234a4.6 4.6 0 0 1-4.47-5.8z" stroke="#000" stroke-width="2" fill="#aee9aa" fill-opacity=".96"/><use xlink:href="#D" transform="matrix(1,0,0,1,322.53172134239725,2324.2223656492743) translate(29.488398437500003 59.5625)"/><use xlink:href="#f" transform="matrix(1,0,0,1,322.53172134239725,2324.2223656492743) translate(70.83703125 59.5625)"/><use xlink:href="#E" transform="matrix(1,0,0,1,322.53172134239725,2324.2223656492743) translate(132.1173046875 59.5625)"/><use xlink:href="#F" transform="matrix(1,0,0,1,322.53172134239725,2324.2223656492743) translate(175.801875 59.5625)"/><use xlink:href="#G" transform="matrix(1,0,0,1,322.53172134239725,2324.2223656492743) translate(200.583125 59.5625)"/><path d="M731.95 1474.64V1535" stroke="#3a414a" stroke-width="3" stroke-linejoin="round" fill="none"/><path d="M733.43 1474.68h-2.95v-1.54h2.95z" stroke="#3a414a" stroke-width=".05" fill="#3a414a"/><path d="M731.95 1549.48l-7.5-13h15z" stroke="#3a414a" stroke-width="3" fill="#3a414a"/><path d="M731.95 1685.3v53.02" stroke="#3a414a" stroke-width="3" stroke-linejoin="round" fill="none"/><path d="M733.43 1685.35h-2.95v-1.54h2.95z" stroke="#3a414a" stroke-width=".05" fill="#3a414a"/><path d="M731.95 1752.8l-7.5-12.98h15z" stroke="#3a414a" stroke-width="3" fill="#3a414a"/><path d="M446.88 2252.73l-.26 47.47" stroke="#3a414a" stroke-width="3" stroke-linejoin="round" fill="none"/><path d="M448.36 2252.78l-2.95-.02.02-1.53h2.95z" stroke="#3a414a" stroke-width=".05" fill="#3a414a"/><path d="M446.54 2314.7l-7.43-13.04 15 .08z" stroke="#3a414a" stroke-width="3" fill="#3a414a"/><path d="M1470.2 1335.8l15.84-.34 19.83-1.25 23.1-2.44 27.6-4.1 34.23-6.55 45.54-10.73 74.18-20.92 209.92-63.77 33.82-8 23.8-4.55 18.2-2.7 14.62-1.56 12.1-.76 10.24-.2 8.83.17 7.72.48 6.82.7 6.1.9 5.5 1.06 5 1.18 4.58 1.28 4.2 1.37 3.92 1.45 3.64 1.53 3.4 1.6 3.2 1.68 3 1.74 2.87 1.8 2.73 1.9 2.6 1.97 2.48 2.04 2.4 2.15 2.28 2.23 2.2 2.35 2.14 2.47 2.06 2.6 2 2.75 1.94 2.92 1.87 3.1 1.82 3.32 1.76 3.55 1.7 3.8 1.64 4.15 1.56 4.5 1.5 4.93 1.38 5.4 1.27 6 1.13 6.7.95 7.52.53 6.27" stroke="#3a414a" stroke-width="3" stroke-linejoin="round" fill="none"/><path d="M1470.27 1337.28l-1.83.04.15-.5.1-.98-.1-.98-.16-.5 1.76-.03z" stroke="#3a414a" stroke-width=".05" fill="#3a414a"/><path d="M2142.47 1321.95l-7.98-12.7 14.98-.56z" stroke="#3a414a" stroke-width="3" fill="#3a414a"/><path d="M2137.24 1327.23a11.78 11.78 0 0 1 10.7 0l141.1 71.9a3.06 3.06 0 0 1 0 5.44l-141.1 71.9a11.78 11.78 0 0 1-10.7 0l-141.12-71.9a3.06 3.06 0 0 1 0-5.45z" stroke="#000" stroke-width="2" fill="#fff"/><use xlink:href="#o" transform="matrix(1,0,0,1,2005.9548732856763,1332.238687248228) translate(62.15490234375001 77.6875)"/><use xlink:href="#p" transform="matrix(1,0,0,1,2005.9548732856763,1332.238687248228) translate(153.07873046875 77.6875)"/><use xlink:href="#P" transform="matrix(1,0,0,1,2005.9548732856763,1332.238687248228) translate(194.79552734375 77.6875)"/><path d="M1991.94 1401.82l-219.87-3.13-28.93 1.78-21.94 2.3-17.56 2.57-14.53 2.76-12.28 2.9-10.6 2.94-9.23 3-8.16 3.02-7.26 3.05-6.52 3.08-5.9 3.08-5.36 3.1-4.9 3.1-4.52 3.14-4.17 3.16-3.85 3.2-3.6 3.24-3.35 3.28-3.14 3.34-2.94 3.4-2.77 3.5-2.6 3.57-2.44 3.67-2.3 3.8-2.15 3.92-2.02 4.08-1.9 4.25-1.76 4.45-1.62 4.67-1.5 4.93-1.33 5.22-1.18 5.55-1 5.94-.8 6.37-.08.9" stroke="#3a414a" stroke-width="3" stroke-linejoin="round" fill="none"/><path d="M1993.74 1400.37l-.2.6-.1.88.1.88.2.6-1.86-.03.04-2.95z" stroke="#3a414a" stroke-width=".05" fill="#3a414a"/><path d="M1567.15 1537.44l-6.86-13.34 14.98.73z" stroke="#3a414a" stroke-width="3" fill="#3a414a"/><path d="M2142.6 1480.25l.8 40.6 1.95 31.25 2.73 26.04 3.8 25.58 18.2 101.2 2.74 26.05 1.94 31.24.48 24.63" stroke="#3a414a" stroke-width="3" stroke-linejoin="round" fill="none"/><path d="M2141.38 1478.7l1.2.05 1.2-.06.27-.05.04 1.6-2.96.07-.04-1.67z" stroke="#3a414a" stroke-width=".05" fill="#3a414a"/><path d="M2175.53 1801.32l-7.76-12.84 15-.3z" stroke="#3a414a" stroke-width="3" fill="#3a414a"/><path d="M2055.45 1811.12a7.8 7.8 0 0 1 7.55-5.8h291.4a4.6 4.6 0 0 1 4.46 5.8l-63.14 236.75a7.8 7.8 0 0 1-7.54 5.8h-291.4a4.6 4.6 0 0 1-4.46-5.8z" stroke="#000" stroke-width="2" fill="#aee9aa" fill-opacity=".96"/><use xlink:href="#Q" transform="matrix(1,0,0,1,2009.2556333750454,1817.7367306075816) translate(55.78722656250001 102.1875)"/><use xlink:href="#R" transform="matrix(1,0,0,1,2009.2556333750454,1817.7367306075816) translate(156.3594921875 102.1875)"/><use xlink:href="#S" transform="matrix(1,0,0,1,2009.2556333750454,1817.7367306075816) translate(204.96984375 102.1875)"/><use xlink:href="#T" transform="matrix(1,0,0,1,2009.2556333750454,1817.7367306075816) translate(265.7676953125 102.1875)"/><use xlink:href="#U" transform="matrix(1,0,0,1,2009.2556333750454,1817.7367306075816) translate(102.21789062500001 139.93828125)"/><path d="M1727.5 1423.47a6 6 0 0 1 6-6h82.1a6 6 0 0 1 6 6v82.65a6 6 0 0 1-6 6h-82.1a6 6 0 0 1-6-6z" fill="none"/><use xlink:href="#H" transform="matrix(1,0,0,1,1732.4995208324742,1422.4707191210014) translate(0 57.05078125)"/><path d="M2192.48 1518.12a6 6 0 0 1 6-6h82.1a6 6 0 0 1 6 6v82.66a6 6 0 0 1-6 6h-82.1a6 6 0 0 1-6-6z" fill="none"/><use xlink:href="#I" transform="matrix(1,0,0,1,2197.480096139686,1517.1240075828323) translate(0 57.05078125)"/><path d="M-70.87 2230.85a11.58 11.58 0 0 1 10.66 0l147.64 76.5a3.1 3.1 0 0 1 0 5.53L-60.2 2389.4a11.58 11.58 0 0 1-10.67 0l-147.65-76.52a3.1 3.1 0 0 1 0-5.52z" stroke="#000" stroke-width="2" fill="#fff"/><use xlink:href="#V" transform="matrix(1,0,0,1,-208.02055391077576,2236.2916393200667) translate(59.56017578125 66.8125)"/><use xlink:href="#W" transform="matrix(1,0,0,1,-208.02055391077576,2236.2916393200667) translate(126.52794921875 66.8125)"/><use xlink:href="#X" transform="matrix(1,0,0,1,-208.02055391077576,2236.2916393200667) translate(168.24474609375 66.8125)"/><use xlink:href="#Y" transform="matrix(1,0,0,1,-208.02055391077576,2236.2916393200667) translate(191.95958984375 66.8125)"/><use xlink:href="#Z" transform="matrix(1,0,0,1,-208.02055391077576,2236.2916393200667) translate(75.01671875 104.56328124999999)"/><use xlink:href="#W" transform="matrix(1,0,0,1,-208.02055391077576,2236.2916393200667) translate(151.874140625 104.56328124999999)"/><use xlink:href="#aa" transform="matrix(1,0,0,1,-208.02055391077576,2236.2916393200667) translate(193.5909375 104.56328124999999)"/><path d="M91.63 2310.15l2.27.05 3.52.22 3.3.35 3.12.46 2.95.56 2.8.65 2.68.75 2.56.83 2.48.92 2.38 1 2.3 1.1 2.26 1.16 2.2 1.28 2.13 1.36 2.1 1.46 2.06 1.57 2.04 1.7 2.02 1.8 2 1.96 2 2.12 1.97 2.3 1.97 2.5 1.97 2.72 2 2.98 1.98 3.3 2 3.63 2 4.05 2.03 4.55 2.03 5.13 2.03 5.86 2.04 6.73 2 7.84 1.98 9.3 1.9 11.22 1.75 14 1.5 18.3 1.1 27.2.08 7.9" stroke="#3a414a" stroke-width="3" stroke-linejoin="round" fill="none"/><path d="M91.7 2308.68l-.06 2.95-1.8-.04.2-.6.1-.88-.1-.9-.2-.58z" stroke="#3a414a" stroke-width=".05" fill="#3a414a"/><path d="M173.28 2485.46l-7.62-12.93 15-.13z" stroke="#3a414a" stroke-width="3" fill="#3a414a"/><path d="M11.53 2495.25a7.8 7.8 0 0 1 7.55-5.8h363.8a4.6 4.6 0 0 1 4.46 5.8l-52.26 195.98a7.8 7.8 0 0 1-7.55 5.8h-363.8a4.6 4.6 0 0 1-4.46-5.8z" stroke="#000" stroke-width="2" fill="#aee9aa" fill-opacity=".96"/><use xlink:href="#ab" transform="matrix(1,0,0,1,-20.716038206410104,2499.835657227562) translate(28.054804687500006 83.625)"/><use xlink:href="#ac" transform="matrix(1,0,0,1,-20.716038206410104,2499.835657227562) translate(70.54601562500001 83.625)"/><use xlink:href="#ad" transform="matrix(1,0,0,1,-20.716038206410104,2499.835657227562) translate(155.3887890625 83.625)"/><use xlink:href="#ae" transform="matrix(1,0,0,1,-20.716038206410104,2499.835657227562) translate(263.616328125 83.625)"/><use xlink:href="#af" transform="matrix(1,0,0,1,-20.716038206410104,2499.835657227562) translate(129.862421875 121.37578124999999)"/><path d="M732.03 1879.3l.32 6.45.9 5.64 1.56 5.57 3.3 10.04" stroke="#3a414a" stroke-width="3" stroke-linejoin="round" fill="none"/><path d="M733.5 1879.27l-2.94.15-.08-1.6h2.95z" stroke="#3a414a" stroke-width=".05" fill="#3a414a"/><path d="M740.15 1921.26l-9.28-11.8 14.84-2.13z" stroke="#3a414a" stroke-width="3" fill="#3a414a"/><path d="M735.2 1926.48a12.13 12.13 0 0 1 10.76 0l131.28 64.97a2.97 2.97 0 0 1 0 5.32l-131.28 64.96a12.13 12.13 0 0 1-10.76 0l-131.28-64.96a2.97 2.97 0 0 1 0-5.32z" stroke="#000" stroke-width="2" fill="#fff"/><use xlink:href="#ag" transform="matrix(1,0,0,1,612.7471577606917,1930.8518788034144) translate(63.69201171875001 72.8125)"/><use xlink:href="#W" transform="matrix(1,0,0,1,612.7471577606917,1930.8518788034144) translate(133.19884765625 72.8125)"/><use xlink:href="#aa" transform="matrix(1,0,0,1,612.7471577606917,1930.8518788034144) translate(174.91564453125 72.8125)"/><path d="M599.76 1994.14l-6.16.13-7.52.47-7.38.78-7.24 1.07-7.1 1.34-6.96 1.63-6.8 1.9-6.68 2.17-6.53 2.43-6.4 2.68-6.2 2.93-6.08 3.17-5.9 3.4-5.75 3.66-5.57 3.88-5.4 4.1-5.2 4.3-5.02 4.52-4.82 4.72-4.62 4.92-4.42 5.12-4.2 5.3-3.98 5.48-3.76 5.65-3.52 5.82-3.3 6-3.05 6.14-2.8 6.3-2.55 6.45-2.3 6.6-2.03 6.76-1.77 6.88-1.5 7.03-1.2 7.17-.93 7.3-.12 1.43" stroke="#3a414a" stroke-width="3" stroke-linejoin="round" fill="none"/><path d="M601.36 1993.23l-.1.88.1.88.2.6-1.8.04-.07-2.95 1.87-.04z" stroke="#3a414a" stroke-width=".05" fill="#3a414a"/><path d="M434.3 2158.24l-6.86-13.35 14.98.73z" stroke="#3a414a" stroke-width="3" fill="#3a414a"/><path d="M881.4 1994.14l4.57.1 5.84.36 5.64.6 5.45.8 5.28 1 5.15 1.2 5.02 1.42 4.9 1.6 4.8 1.77 4.72 1.98 4.63 2.18 4.57 2.38 4.5 2.6 4.45 2.83 4.4 3.06 4.36 3.3 4.32 3.58 4.28 3.87 4.25 4.16 4.2 4.48 4.18 4.85 4.14 5.2 4.08 5.62 4 6.04 3.94 6.5 3.84 7 3.72 7.5 3.58 8.03 3.4 8.6 3.18 9.14 2.93 9.7 2.64 10.24 2.28 10.75 1.9 11.2 1.45 11.56 1 11.86.02.6" stroke="#3a414a" stroke-width="3" stroke-linejoin="round" fill="none"/><path d="M881.47 1992.67l-.06 2.95-1.8-.04.2-.6.1-.87-.1-.87-.2-.6z" stroke="#3a414a" stroke-width=".05" fill="#3a414a"/><path d="M1027.44 2186.23l-7.9-12.75 15-.47z" stroke="#3a414a" stroke-width="3" fill="#3a414a"/><path d="M865.76 2196.03a7.8 7.8 0 0 1 7.54-5.8h363.8a4.6 4.6 0 0 1 4.46 5.8L1189.3 2392a7.8 7.8 0 0 1-7.54 5.8h-363.8a4.6 4.6 0 0 1-4.46-5.8z" stroke="#000" stroke-width="2" fill="#aee9aa" fill-opacity=".96"/><use xlink:href="#ab" transform="matrix(1,0,0,1,833.5103518966685,2200.6087404164036) translate(28.054804687500006 83.625)"/><use xlink:href="#ac" transform="matrix(1,0,0,1,833.5103518966685,2200.6087404164036) translate(70.54601562500001 83.625)"/><use xlink:href="#ad" transform="matrix(1,0,0,1,833.5103518966685,2200.6087404164036) translate(155.3887890625 83.625)"/><use xlink:href="#ae" transform="matrix(1,0,0,1,833.5103518966685,2200.6087404164036) translate(263.616328125 83.625)"/><use xlink:href="#af" transform="matrix(1,0,0,1,833.5103518966685,2200.6087404164036) translate(129.862421875 121.37578124999999)"/><path d="M-161.5 1769.2a7.8 7.8 0 0 1 7.56-5.8H53.8a4.6 4.6 0 0 1 4.45 5.8L30.4 1873.6a7.8 7.8 0 0 1-7.54 5.8h-207.74a4.6 4.6 0 0 1-4.45-5.8z" stroke="#000" stroke-width="2" fill="#aee9aa" fill-opacity=".96"/><use xlink:href="#ah" transform="matrix(1,0,0,1,-178.3414412407144,1769.205878543514) translate(24.831171875000003 61.28125)"/><use xlink:href="#ai" transform="matrix(1,0,0,1,-178.3414412407144,1769.205878543514) translate(123.14367187500001 61.28125)"/><path d="M-65.54 1881.9v52.38" stroke="#3a414a" stroke-width="3" stroke-linejoin="round" fill="none"/><path d="M-64.07 1881.94h-2.95v-1.53h2.95z" stroke="#3a414a" stroke-width=".05" fill="#3a414a"/><path d="M-65.54 1948.77l-7.5-13h15z" stroke="#3a414a" stroke-width="3" fill="#3a414a"/><path d="M-115.1 1958.57a7.8 7.8 0 0 1 7.56-5.8h116a4.6 4.6 0 0 1 4.45 5.8l-28.9 108.4a7.8 7.8 0 0 1-7.54 5.8h-116a4.6 4.6 0 0 1-4.46-5.8z" stroke="#000" stroke-width="2" fill="#e39b9b"/><use xlink:href="#aj" transform="matrix(1,0,0,1,-137.54144124071445,1958.773241102535) translate(37.232539062499995 62.3125)"/><path d="M-222.7 2310.15l-10.2.22-11.54.72-11.27 1.18-10.9 1.6-10.43 2-9.9 2.3-9.33 2.62-8.75 2.84-8.2 3.03-7.6 3.2-7.04 3.32-6.54 3.4-6.06 3.5-5.6 3.55-5.18 3.6-4.8 3.64-4.44 3.66-4.1 3.7-3.8 3.72-3.52 3.74-3.25 3.78-3.02 3.8-2.78 3.83-2.57 3.87-2.37 3.9-2.18 3.97-2 4.02-1.82 4.08-1.65 4.17-1.48 4.25-1.3 4.34-1.15 4.47-.98 4.6-.8 4.72-.06.5" stroke="#3a414a" stroke-width="3" stroke-linejoin="round" fill="none"/><path d="M-221.1 2309.23l-.1.9.1.88.2.6-1.82.03-.06-2.95 1.87-.04z" stroke="#3a414a" stroke-width=".05" fill="#3a414a"/><path d="M-400.3 2438.47l-6.58-13.5 14.96 1.06z" stroke="#3a414a" stroke-width="3" fill="#3a414a"/><path d="M-65.54 1657.13v87.8" stroke="#3a414a" stroke-width="3" stroke-linejoin="round" fill="none"/><path d="M-64.07 1657.16h-2.95v-1.54h2.95z" stroke="#3a414a" stroke-width=".05" fill="#3a414a"/><path d="M-65.54 1759.4l-7.5-12.98h15z" stroke="#3a414a" stroke-width="3" fill="#3a414a"/><path d="M-65.54 2075.28v135.78" stroke="#3a414a" stroke-width="3" stroke-linejoin="round" fill="none"/><path d="M-64.07 2075.3h-2.95v-1.53h2.95z" stroke="#3a414a" stroke-width=".05" fill="#3a414a"/><path d="M-65.54 2225.55l-7.5-13h15z" stroke="#3a414a" stroke-width="3" fill="#3a414a"/><path d="M1447.5 1547.24a7.8 7.8 0 0 1 7.55-5.8h256.62a4.6 4.6 0 0 1 4.45 5.8l-29.6 111.07a7.8 7.8 0 0 1-7.56 5.8h-256.62a4.6 4.6 0 0 1-4.46-5.8z" stroke="#000" stroke-width="2" fill="#aee9aa" fill-opacity=".96"/><use xlink:href="#r" transform="matrix(1,0,0,1,1431.404587575265,1547.572961156864) translate(26.177851562500003 63.34375)"/><use xlink:href="#c" transform="matrix(1,0,0,1,1431.404587575265,1547.572961156864) translate(90.79699218750001 63.34375)"/><use xlink:href="#ak" transform="matrix(1,0,0,1,1431.404587575265,1547.572961156864) translate(129.1876171875 63.34375)"/><path d="M1567 1666.6v60.35" stroke="#3a414a" stroke-width="3" stroke-linejoin="round" fill="none"/><path d="M1568.48 1666.65h-2.95v-1.54h2.95z" stroke="#3a414a" stroke-width=".05" fill="#3a414a"/><path d="M1567 1741.44l-7.5-13h15z" stroke="#3a414a" stroke-width="3" fill="#3a414a"/><path d="M1474.6 1751.24a7.8 7.8 0 0 1 7.56-5.8h204.18a4.6 4.6 0 0 1 4.45 5.8l-31.4 117.74a7.8 7.8 0 0 1-7.55 5.8h-204.18a4.6 4.6 0 0 1-4.45-5.8z" stroke="#000" stroke-width="2" fill="#aee9aa" fill-opacity=".96"/><use xlink:href="#t" transform="matrix(1,0,0,1,1454.204587575265,1751.906294490198) translate(29.433222656250003 69.0625)"/><use xlink:href="#u" transform="matrix(1,0,0,1,1454.204587575265,1751.906294490198) translate(128.43126953125 69.0625)"/><path d="M1567 1877.27v53" stroke="#3a414a" stroke-width="3" stroke-linejoin="round" fill="none"/><path d="M1568.48 1877.3h-2.95v-1.53h2.95z" stroke="#3a414a" stroke-width=".05" fill="#3a414a"/><path d="M1567 1944.77l-7.5-13h15z" stroke="#3a414a" stroke-width="3" fill="#3a414a"/><path d="M1517.46 1954.57a7.8 7.8 0 0 1 7.55-5.8h116a4.6 4.6 0 0 1 4.46 5.8l-28.9 108.4a7.8 7.8 0 0 1-7.55 5.8h-116a4.6 4.6 0 0 1-4.45-5.8z" stroke="#000" stroke-width="2" fill="#e39b9b"/><use xlink:href="#v" transform="matrix(1,0,0,1,1495.0045875752648,1954.7729611568648) translate(42.177363281249995 62.3125)"/><path d="M1055.36 2862.6a6 6 0 0 1 6-6h341.33a6 6 0 0 1 6 6v76a6 6 0 0 1-6 6h-341.34a6 6 0 0 1-6-6z" stroke="#000" stroke-width="2" fill="#fff"/><use xlink:href="#w" transform="matrix(1,0,0,1,1073.0277957196413,2861.006736105413) translate(46.20849609375 50.1875)"/><use xlink:href="#x" transform="matrix(1,0,0,1,1073.0277957196413,2861.006736105413) translate(71.45947265625 50.1875)"/><use xlink:href="#y" transform="matrix(1,0,0,1,1073.0277957196413,2861.006736105413) translate(95.97412109375 50.1875)"/><use xlink:href="#z" transform="matrix(1,0,0,1,1073.0277957196413,2861.006736105413) translate(172.42529296875 50.1875)"/><use xlink:href="#al" transform="matrix(1,0,0,1,1073.0277957196413,2861.006736105413) translate(192.76318359375 50.1875)"/><path d="M1232.08 2947.1l.25 6.64.7 6.1 1.02 5.18 1.45 5.18 6.93 20.23.4 2.04" stroke="#3a414a" stroke-width="3" stroke-linejoin="round" fill="none"/><path d="M1233.56 2947.1l-2.95.1-.05-1.6h2.95z" stroke="#3a414a" stroke-width=".05" fill="#3a414a"/><path d="M1244.18 3006.86l-8.68-12.23 14.94-1.4z" stroke="#3a414a" stroke-width="3" fill="#3a414a"/><path d="M1135.25 3016.65a7.8 7.8 0 0 1 7.55-5.8h233.42a4.6 4.6 0 0 1 4.45 5.8l-27 101.3a7.8 7.8 0 0 1-7.56 5.8h-233.4a4.6 4.6 0 0 1-4.46-5.8z" stroke="#000" stroke-width="2" fill="#aee9aa" fill-opacity=".96"/><g><use xlink:href="#D" transform="matrix(1,0,0,1,1120.4707641745297,3016.494357832028) translate(29.988398437500003 60.25)"/><use xlink:href="#f" transform="matrix(1,0,0,1,1120.4707641745297,3016.494357832028) translate(71.33703125 60.25)"/><use xlink:href="#E" transform="matrix(1,0,0,1,1120.4707641745297,3016.494357832028) translate(132.6173046875 60.25)"/><use xlink:href="#F" transform="matrix(1,0,0,1,1120.4707641745297,3016.494357832028) translate(176.301875 60.25)"/><use xlink:href="#G" transform="matrix(1,0,0,1,1120.4707641745297,3016.494357832028) translate(201.083125 60.25)"/></g><path d="M1561.68 2645a11.58 11.58 0 0 1 10.65 0l147.66 76.5a3.1 3.1 0 0 1 0 5.53l-147.67 76.5a11.58 11.58 0 0 1-10.65 0l-147.66-76.5a3.1 3.1 0 0 1 0-5.52z" stroke="#000" stroke-width="2" fill="#fff"/><g><use xlink:href="#V" transform="matrix(1,0,0,1,1424.5254749052035,2650.439687351496) translate(59.56017578125 66.8125)"/><use xlink:href="#W" transform="matrix(1,0,0,1,1424.5254749052035,2650.439687351496) translate(126.52794921875 66.8125)"/><use xlink:href="#X" transform="matrix(1,0,0,1,1424.5254749052035,2650.439687351496) translate(168.24474609375 66.8125)"/><use xlink:href="#Y" transform="matrix(1,0,0,1,1424.5254749052035,2650.439687351496) translate(191.95958984375 66.8125)"/><use xlink:href="#Z" transform="matrix(1,0,0,1,1424.5254749052035,2650.439687351496) translate(75.01671875 104.56328124999999)"/><use xlink:href="#W" transform="matrix(1,0,0,1,1424.5254749052035,2650.439687351496) translate(151.874140625 104.56328124999999)"/><use xlink:href="#aa" transform="matrix(1,0,0,1,1424.5254749052035,2650.439687351496) translate(193.5909375 104.56328124999999)"/></g><path d="M1724.17 2724.3l2.27.05 3.53.22 3.3.35 3.12.46 2.94.56 2.8.66 2.68.74 2.57.84 2.46.92 2.4 1 2.3 1.1 2.25 1.16 2.2 1.27 2.14 1.36 2.1 1.45 2.07 1.57 2.05 1.68 2.02 1.82 2 1.96 1.98 2.12 1.98 2.3 1.98 2.5 2 2.72 1.97 2.98 2 3.3 2 3.63 2 4.05 2.03 4.55 2.02 5.13 2.04 5.84 2.03 6.74 2 7.84 1.97 9.3 1.9 11.23 1.74 14 1.53 18.32 1.1 27.2.06 7.9" stroke="#3a414a" stroke-width="3" stroke-linejoin="round" fill="none"/><path d="M1724.24 2722.83l-.06 2.95-1.8-.04.2-.58.1-.9-.1-.88-.2-.6z" stroke="#3a414a" stroke-width=".05" fill="#3a414a"/><path d="M1805.82 2899.6l-7.6-12.92 15-.13z" stroke="#3a414a" stroke-width="3" fill="#3a414a"/><path d="M1644.08 2909.4a7.8 7.8 0 0 1 7.55-5.8h363.8a4.6 4.6 0 0 1 4.45 5.8l-52.26 195.98a7.8 7.8 0 0 1-7.54 5.8h-363.8a4.6 4.6 0 0 1-4.46-5.8z" stroke="#000" stroke-width="2" fill="#aee9aa" fill-opacity=".96"/><g><use xlink:href="#ab" transform="matrix(1,0,0,1,1611.8299906095692,2913.9837052589914) translate(28.054804687500006 83.625)"/><use xlink:href="#ac" transform="matrix(1,0,0,1,1611.8299906095692,2913.9837052589914) translate(70.54601562500001 83.625)"/><use xlink:href="#ad" transform="matrix(1,0,0,1,1611.8299906095692,2913.9837052589914) translate(155.3887890625 83.625)"/><use xlink:href="#ae" transform="matrix(1,0,0,1,1611.8299906095692,2913.9837052589914) translate(263.616328125 83.625)"/><use xlink:href="#af" transform="matrix(1,0,0,1,1611.8299906095692,2913.9837052589914) translate(129.862421875 121.37578124999999)"/></g><path d="M1471.06 2183.35a7.8 7.8 0 0 1 7.55-5.8h207.74a4.6 4.6 0 0 1 4.45 5.8l-27.85 104.4a7.8 7.8 0 0 1-7.55 5.8h-207.73a4.6 4.6 0 0 1-4.45-5.8z" stroke="#000" stroke-width="2" fill="#aee9aa" fill-opacity=".96"/><g><use xlink:href="#ah" transform="matrix(1,0,0,1,1454.204587575265,2183.353926574943) translate(24.831171875000003 61.28125)"/><use xlink:href="#ai" transform="matrix(1,0,0,1,1454.204587575265,2183.353926574943) translate(123.14367187500001 61.28125)"/></g><path d="M1567 2296.05v52.38" stroke="#3a414a" stroke-width="3" stroke-linejoin="round" fill="none"/><path d="M1568.48 2296.1h-2.95v-1.55h2.95z" stroke="#3a414a" stroke-width=".05" fill="#3a414a"/><path d="M1567 2362.92l-7.5-13h15z" stroke="#3a414a" stroke-width="3" fill="#3a414a"/><path d="M1517.46 2372.72a7.8 7.8 0 0 1 7.55-5.8h116a4.6 4.6 0 0 1 4.46 5.8l-28.9 108.4a7.8 7.8 0 0 1-7.55 5.8h-116a4.6 4.6 0 0 1-4.45-5.8z" stroke="#000" stroke-width="2" fill="#e39b9b"/><g><use xlink:href="#aj" transform="matrix(1,0,0,1,1495.0045875752648,2372.921289133964) translate(37.232539062499995 62.3125)"/></g><path d="M1409.84 2724.3l-10.2.2-11.53.74-11.26 1.2-10.9 1.6-10.43 1.98-9.88 2.32-9.34 2.6-8.75 2.85-8.17 3.02-7.6 3.2-7.06 3.32-6.54 3.4-6.05 3.5-5.6 3.56-5.18 3.6-4.8 3.64-4.43 3.67-4.12 3.7-3.8 3.73-3.5 3.74-3.27 3.77-3 3.8-2.8 3.84-2.56 3.86-2.37 3.92-2.18 3.96-2 4.02-1.82 4.1-1.65 4.15-1.48 4.24-1.3 4.35-1.16 4.45-.98 4.6-.8 4.72-.07.5" stroke="#3a414a" stroke-width="3" stroke-linejoin="round" fill="none"/><path d="M1411.43 2723.38l-.1.9.1.88.2.58-1.8.04-.06-2.95 1.87-.04z" stroke="#3a414a" stroke-width=".05" fill="#3a414a"/><path d="M1232.24 2852.6l-6.57-13.47 14.96 1.05z" stroke="#3a414a" stroke-width="3" fill="#3a414a"/><path d="M1567 2071.28v87.78" stroke="#3a414a" stroke-width="3" stroke-linejoin="round" fill="none"/><path d="M1568.48 2071.3h-2.95v-1.53h2.95z" stroke="#3a414a" stroke-width=".05" fill="#3a414a"/><path d="M1567 2173.55l-7.5-13h15z" stroke="#3a414a" stroke-width="3" fill="#3a414a"/><path d="M1567 2489.42v135.8" stroke="#3a414a" stroke-width="3" stroke-linejoin="round" fill="none"/><path d="M1568.48 2489.46h-2.95v-1.54h2.95z" stroke="#3a414a" stroke-width=".05" fill="#3a414a"/><path d="M1567 2639.7l-7.5-13h15z" stroke="#3a414a" stroke-width="3" fill="#3a414a"/><path d="M-388.06 2712.1l.18 8.64.63 9.88 1 9.67 1.42 9.5 1.8 9.38 2.17 9.3 2.58 9.24 3 9.24 3.44 9.24 3.9 9.3 4.44 9.4 4.98 9.54 5.6 9.7 6.3 9.93 7.1 10.2 8 10.5 9 10.9 10.26 11.38 11.7 11.93 13.4 12.58 15.5 13.38 18.1 14.33 21.4 15.52 25.6 16.98 31.27 18.9 39.17 21.5 51 25.25 71.08 31.53 117.2 46.1 494.8 180.08 71.08 31.53 51 25.26 39.17 21.5 31.27 18.9 25.6 16.98 21.38 15.53 18.1 14.33 15.52 13.38 13.4 12.58 11.7 11.93 10.24 11.37 9.04 10.9 8 10.52 7.08 10.2 6.3 9.92 5.6 9.7 5 9.53 4.4 9.4 3.93 9.3 3.44 9.24 3 9.24 2.57 9.24 2.18 9.3 1.8 9.38 1.4 9.5 1 9.68.17 2.55" stroke="#3a414a" stroke-width="3" stroke-linejoin="round" fill="none"/><path d="M-386.58 2712.12l-2.95.06-.03-1.58h2.95z" stroke="#3a414a" stroke-width=".05" fill="#3a414a"/><path d="M971.88 3650.5l-8-12.7 15-.56z" stroke="#3a414a" stroke-width="3" fill="#3a414a"/><path d="M1012 3654.5c22.1 0 40 17.9 40 40s-17.9 40-40 40h-80c-22.1 0-40-17.9-40-40s17.9-40 40-40z" stroke="#000" stroke-width="2" fill="#fff"/><g><use xlink:href="#am" transform="matrix(1,0,0,1,899.9962980294486,3658.5036918723317) translate(53.49658203125 45.4375)"/></g><path d="M173.34 2699.54l.33 16.03 1.05 16.76 1.7 16.1 2.3 15.56 2.87 15.08 3.44 14.72 4.03 14.4 4.6 14.2 5.23 14.03 5.86 13.94 6.55 13.93 7.3 13.97 8.16 14.1 9.08 14.3 10.16 14.6 11.42 15.04 12.9 15.6 14.7 16.3 16.92 17.28 19.8 18.57 23.64 20.38 29.2 23.12 38.25 27.73 57.87 38.3 261.77 162.68 38.25 27.73 29.2 23.1 23.65 20.4 19.8 18.56 16.92 17.27 14.7 16.3 12.9 15.6 11.4 15.02 10.16 14.6 9.08 14.32 8.15 14.1 7.3 13.97 6.54 13.92 5.87 13.94 5.23 14.03 4.6 14.2 4.03 14.4 3.45 14.72 2.9 15.1 2.3 15.55 1.68 16.1 1.05 16.76v.06" stroke="#3a414a" stroke-width="3" stroke-linejoin="round" fill="none"/><path d="M174.8 2699.55l-2.94.06-.03-1.57h2.95z" stroke="#3a414a" stroke-width=".05" fill="#3a414a"/><path d="M971.93 3650.5l-7.76-12.83 15-.3z" stroke="#3a414a" stroke-width="3" fill="#3a414a"/><path d="M446.55 2431.9l.85 41.17 2.45 39.1 3.8 36.2 4.98 33.8 6.07 31.84 7.1 30.3 8.1 29.04 9.15 28.13 10.23 27.52 11.45 27.2 12.83 27.3 14.52 27.75 16.66 28.84 19.6 30.84 24.1 34.63 32.74 43.02 188.9 229.7 24.1 34.64 19.6 30.85 16.65 28.83 14.52 27.76 12.84 27.26 11.43 27.22 10.24 27.52 9.14 28.13 8.12 29.05 7.1 30.28 6.06 31.85 5 33.8 3.78 36.2 2.46 39.1.52 25.22" stroke="#3a414a" stroke-width="3" stroke-linejoin="round" fill="none"/><path d="M448.02 2431.9l-2.94.06-.04-1.6H448z" stroke="#3a414a" stroke-width=".05" fill="#3a414a"/><path d="M971.93 3650.5l-7.76-12.83 15-.3z" stroke="#3a414a" stroke-width="3" fill="#3a414a"/><path d="M1027.5 2400.32l-5.8 311.07-15.23 237.68-28.64 391.83-5.5 295.12" stroke="#3a414a" stroke-width="3" stroke-linejoin="round" fill="none"/><path d="M1028.98 2400.4l-2.95-.07.03-1.53h2.95z" stroke="#3a414a" stroke-width=".05" fill="#3a414a"/><path d="M972.05 3650.5l-7.25-13.12 15 .28z" stroke="#3a414a" stroke-width="3" fill="#3a414a"/><path d="M1244.43 3126.25l-.3 14-.9 14.4-1.4 13.5-1.9 12.74-2.3 12.1-2.72 11.6-3.1 11.17-3.54 10.86-3.95 10.63-4.4 10.48-4.9 10.44-5.5 10.5-6.15 10.65-7 11-8.03 11.56-9.48 12.47-11.66 14.07-15.6 17.3-29.57 29.97-57.13 56.82-15.6 17.28-11.65 14.07-9.5 12.5-8.03 11.55-7 11-6.15 10.66-5.5 10.5-4.9 10.43-4.4 10.5-3.96 10.62-3.54 10.85-3.12 11.18-2.72 11.6-2.3 12.1-1.88 12.74-1.42 13.5-.78 12.42" stroke="#3a414a" stroke-width="3" stroke-linejoin="round" fill="none"/><path d="M1245.9 3126.32l-2.95-.06.03-1.52h2.95z" stroke="#3a414a" stroke-width=".05" fill="#3a414a"/><path d="M972.07 3650.5l-7.17-13.17 15 .38z" stroke="#3a414a" stroke-width="3" fill="#3a414a"/><path d="M1805.82 3113.7l-.08 3.94-.34 5.32-.55 5.22-.76 5.14-.98 5.1-1.18 5.03-1.4 5.03-1.64 5.02-1.87 5.04-2.14 5.08-2.43 5.13-2.72 5.22-3.07 5.3-3.46 5.45-3.9 5.6-4.38 5.78-4.97 6-5.64 6.26-6.44 6.57-7.4 6.94-8.55 7.37-9.98 7.9-11.76 8.54-14.06 9.34-17.1 10.34-21.28 11.67-27.33 13.53-36.95 16.4-55.37 21.82-146.68 50-171.7 58.12-55.36 21.82-36.95 16.4-27.32 13.53-21.27 11.67-17.1 10.35-14.06 9.33-11.77 8.54-9.97 7.9-8.55 7.37-7.4 6.95-6.43 6.57-5.65 6.26-4.96 6-4.38 5.78-3.9 5.6-3.45 5.44-3.07 5.3-2.73 5.23-2.42 5.13-2.13 5.08-1.88 5.04-1.63 5.02-1.4 5.03-1.18 5.04-.97 5.1-.54 3.7" stroke="#3a414a" stroke-width="3" stroke-linejoin="round" fill="none"/><path d="M1807.3 3113.76l-2.96-.07.04-1.52h2.95z" stroke="#3a414a" stroke-width=".05" fill="#3a414a"/><path d="M972.2 3650.5l-6.58-13.47 14.97 1.04z" stroke="#3a414a" stroke-width="3" fill="#3a414a"/><path d="M2175.62 2056.18l3.9 173.12 16.24 375.33-1.3 64.75-3.08 49.8L2187 2761l-5.44 36.9-6.4 33.62-7.34 31.33-8.3 29.75-9.32 28.67-10.4 28-11.65 27.67-13 27.66-14.63 27.93-16.47 28.52-18.67 29.4-21.33 30.7-24.58 32.35-28.62 34.56-3.48 4-84.2 93-59.3 60.1-47.83 44.57-41.34 35.38-37.34 29.34-34.8 25.04-33.23 21.87-32.4 19.43-32.1 17.47-32.4 15.88-33.1 14.56-34.43 13.44-36.3 12.45-38.93 11.54-42.52 10.7-47.4 9.82-54.13 8.86-63.8 7.72-78.28 6.14-101.88 3.7-32.17.24" stroke="#3a414a" stroke-width="3" stroke-linejoin="round" fill="none"/><path d="M2177.1 2056.18l-2.95.07-.04-1.6h2.96z" stroke="#3a414a" stroke-width=".05" fill="#3a414a"/><path d="M975 3653.48l12.93-7.6.12 15z" stroke="#3a414a" stroke-width="3" fill="#3a414a"/><path d="M1067.45 1215.46a6 6 0 0 1 6-6h82.1a6 6 0 0 1 6 6v82.66a6 6 0 0 1-6 6h-82.1a6 6 0 0 1-6-6z" fill="none"/><g><use xlink:href="#H" transform="matrix(1,0,0,1,1072.445571447722,1214.465054610917) translate(0 57.05078125)"/></g><path d="M1455.56 1215.46a6 6 0 0 1 6-6h82.1a6 6 0 0 1 6 6v82.66a6 6 0 0 1-6 6h-82.1a6 6 0 0 1-6-6z" fill="none"/><g><use xlink:href="#I" transform="matrix(1,0,0,1,1460.5572717556404,1214.465054610917) translate(0 57.05078125)"/></g><path d="M-323.5 2234.1a6 6 0 0 1 6-6h82.12a6 6 0 0 1 6 6v66.04a6 6 0 0 1-6 6h-82.1a6 6 0 0 1-6-6z" fill="none"/><g><use xlink:href="#H" transform="matrix(1,0,0,1,-318.4939753104704,2233.088236397498) translate(0 49.05078125)"/></g><path d="M166.62 2287a6 6 0 0 1 6-6h82.1a6 6 0 0 1 6 6v66.05a6 6 0 0 1-6 6h-82.1a6 6 0 0 1-6-6z" fill="none"/><g><use xlink:href="#I" transform="matrix(1,0,0,1,171.62148555990188,2285.9934862864848) translate(0 49.05078125)"/></g><path d="M454.46 1931.42a6 6 0 0 1 6-6h82.1a6 6 0 0 1 6 6v82.65a6 6 0 0 1-6 6h-82.1a6 6 0 0 1-6-6z" fill="none"/><g><use xlink:href="#H" transform="matrix(1,0,0,1,459.4607084450531,1930.415977803987) translate(0 57.05078125)"/></g><path d="M946.5 1908.26a6 6 0 0 1 6-6h82.1a6 6 0 0 1 6 6v82.66a6 6 0 0 1-6 6h-82.1a6 6 0 0 1-6-6z" fill="none"/><g><use xlink:href="#I" transform="matrix(1,0,0,1,951.5007685713208,1907.2640172489037) translate(0 57.05078125)"/></g><path d="M1258.94 2617.54a6 6 0 0 1 6-6h82.1a6 6 0 0 1 6 6v82.65a6 6 0 0 1-6 6h-82.1a6 6 0 0 1-6-6z" fill="none"/><g><use xlink:href="#H" transform="matrix(1,0,0,1,1263.9431974093088,2616.535612530679) translate(0 57.05078125)"/></g><path d="M1750.98 2594.38a6 6 0 0 1 6-6h82.1a6 6 0 0 1 6 6v82.66a6 6 0 0 1-6 6H1757a6 6 0 0 1-6-6z" fill="none"/><g><use xlink:href="#I" transform="matrix(1,0,0,1,1755.9832575355765,2593.383651975596) translate(0 57.05078125)"/></g><defs><path d="M370-1490V0H180v-1490h190" id="an"/><path d="M338-670V0H158v-1118h173l1 207c72-158 192-221 342-221 226 0 378 139 378 422V0H872v-695c0-172-96-275-252-275-161 0-282 109-282 300" id="ao"/><path d="M158 0v-1118h180V0H158zm91-1301c-68 0-125-53-125-119s57-119 125-119c69 0 126 53 126 119s-57 119-126 119" id="ap"/><path d="M613 24c-304 0-509-231-509-576 0-350 205-580 509-580 216 0 392 114 453 309l-173 49c-33-115-133-197-280-197-223 0-326 196-326 419 0 220 103 415 326 415 150 0 252-85 285-206l172 49C1010-95 832 24 613 24" id="aq"/><path d="M613 24c-304 0-509-231-509-576 0-350 205-580 509-580 305 0 511 230 511 580 0 345-206 576-511 576zm0-161c226 0 329-195 329-415 0-222-103-419-329-419-223 0-326 196-326 419 0 220 103 415 326 415" id="ar"/><g id="a"><use transform="matrix(0.0126953125,0,0,0.0126953125,0,0)" xlink:href="#an"/><use transform="matrix(0.0126953125,0,0,0.0126953125,6.982421875,0)" xlink:href="#ao"/><use transform="matrix(0.0126953125,0,0,0.0126953125,22.34375,0)" xlink:href="#ap"/><use transform="matrix(0.0126953125,0,0,0.0126953125,28.640625,0)" xlink:href="#aq"/><use transform="matrix(0.0126953125,0,0,0.0126953125,43.494140625,0)" xlink:href="#ap"/><use transform="matrix(0.0126953125,0,0,0.0126953125,49.791015625,0)" xlink:href="#ar"/></g><path d="M180 0v-1490h270l367 940c28 72 75 218 110 339 35-117 81-264 110-339l362-940h271V0h-187c2-448-5-837 7-1287-157 497-311 829-483 1287H842C666-458 514-784 354-1284c12 438 5 843 7 1284H180" id="as"/><path d="M628 24c-324 0-524-230-524-574 0-343 198-582 503-582 237 0 487 146 487 559v75H286c9 234 145 362 343 362 132 0 231-58 273-172l174 48C1024-91 857 24 628 24zM287-650h624c-17-190-120-322-304-322-192 0-309 151-320 322" id="at"/><path d="M537 14c-226 0-379-139-379-422v-710h180v695c0 172 97 275 253 275 160 0 281-109 281-300v-670h181V0H879v-209C806-46 684 14 537 14" id="au"/><g id="b"><use transform="matrix(0.0126953125,0,0,0.0126953125,0,0)" xlink:href="#as"/><use transform="matrix(0.0126953125,0,0,0.0126953125,23.486328125,0)" xlink:href="#at"/><use transform="matrix(0.0126953125,0,0,0.0126953125,38.64453125,0)" xlink:href="#ao"/><use transform="matrix(0.0126953125,0,0,0.0126953125,54.005859375,0)" xlink:href="#au"/></g><path d="M577 24c-279 0-473-224-473-580 0-354 195-576 474-576 218 0 287 134 324 193h14v-551h180V0H922v-173h-20C865-111 790 24 577 24zm27-161c203 0 314-172 314-421 0-247-108-413-314-413-212 0-317 181-317 413 0 235 108 421 317 421" id="av"/><g id="c"><use transform="matrix(0.0126953125,0,0,0.0126953125,0,0)" xlink:href="#av"/><use transform="matrix(0.0126953125,0,0,0.0126953125,15.919921875,0)" xlink:href="#at"/></g><path d="M471 26C259 26 90-98 90-318c0-256 228-303 435-329 202-27 287-16 287-108 0-139-79-219-234-219-161 0-248 86-283 164l-173-57c86-203 278-265 451-265 150 0 419 46 419 395V0H815v-152h-12C765-73 660 26 471 26zm31-159c199 0 310-134 310-271v-155c-30 35-226 55-295 64-131 17-246 59-246 186 0 116 97 176 231 176" id="aw"/><path d="M158 0v-1118h174v172h12c41-113 157-188 290-188 26 0 70 2 91 3v181c-11-2-60-10-108-10-161 0-279 109-279 260V0H158" id="ax"/><path d="M538 24C308 24 148-78 108-271l171-41c32 123 123 178 257 178 156 0 256-77 256-169 0-77-54-128-164-154l-186-44c-203-48-300-148-300-305 0-192 176-326 414-326 230 0 351 112 402 269l-163 42c-31-80-94-158-238-158-133 0-233 69-233 162 0 83 57 129 188 160l169 40c203 48 298 149 298 302 0 196-179 339-441 339" id="ay"/><path d="M295 13c-75 0-135-60-135-135s60-135 135-135 135 60 135 135S370 13 295 13zm0-809c-75 0-135-60-135-135s60-135 135-135 135 60 135 135-60 135-135 135" id="az"/><g id="d"><use transform="matrix(0.0126953125,0,0,0.0126953125,0,0)" xlink:href="#aw"/><use transform="matrix(0.0126953125,0,0,0.0126953125,14.599609375,0)" xlink:href="#ax"/><use transform="matrix(0.0126953125,0,0,0.0126953125,23.9560546875,0)" xlink:href="#at"/><use transform="matrix(0.0126953125,0,0,0.0126953125,39.3681640625,0)" xlink:href="#aw"/><use transform="matrix(0.0126953125,0,0,0.0126953125,53.9677734375,0)" xlink:href="#ay"/><use transform="matrix(0.0126953125,0,0,0.0126953125,67.69140625,0)" xlink:href="#az"/></g><path d="M653-1490V0H466v-1314h-10L96-1047v-204l324-239h233" id="aA"/><path d="M96 279C273-86 346-350 346-607c0-292-95-659-250-974h175c150 246 258 650 258 974 0 297-91 602-258 886H96" id="aB"/><g id="e"><use transform="matrix(0.0126953125,0,0,0.0126953125,0,0)" xlink:href="#aA"/><use transform="matrix(0.0126953125,0,0,0.0126953125,10.5751953125,0)" xlink:href="#aB"/></g><g id="f"><use transform="matrix(0.0126953125,0,0,0.0126953125,0,0)" xlink:href="#aw"/><use transform="matrix(0.0126953125,0,0,0.0126953125,14.599609375,0)" xlink:href="#ax"/><use transform="matrix(0.0126953125,0,0,0.0126953125,23.9560546875,0)" xlink:href="#at"/><use transform="matrix(0.0126953125,0,0,0.0126953125,39.3681640625,0)" xlink:href="#aw"/></g><path d="M598-1118v154H368v674c0 100 37 144 132 144 23 0 62-6 92-12L629-6c-37 13-88 20-134 20-193 0-307-107-307-290v-688H20v-154h168v-266h180v266h230" id="aC"/><path d="M611 442c-248 0-391-105-460-228l146-94c47 65 117 165 314 165 178 0 307-82 307-266v-224h-17C863-141 792-18 576-18c-268 0-472-195-472-546 0-346 197-568 476-568 216 0 288 133 326 193h17v-179h175V29c0 289-215 413-487 413zm-5-620c203 0 314-146 314-390 0-237-108-403-314-403-213 0-319 180-319 403 0 230 109 390 319 390" id="aD"/><path d="M338-1490V0H158v-1490h180" id="aE"/><g id="g"><use transform="matrix(0.0126953125,0,0,0.0126953125,0,0)" xlink:href="#aC"/><use transform="matrix(0.0126953125,0,0,0.0126953125,8.505859375,0)" xlink:href="#ax"/><use transform="matrix(0.0126953125,0,0,0.0126953125,18.7001953125,0)" xlink:href="#ap"/><use transform="matrix(0.0126953125,0,0,0.0126953125,24.9970703125,0)" xlink:href="#aw"/><use transform="matrix(0.0126953125,0,0,0.0126953125,39.5966796875,0)" xlink:href="#ao"/><use transform="matrix(0.0126953125,0,0,0.0126953125,54.9580078125,0)" xlink:href="#aD"/><use transform="matrix(0.0126953125,0,0,0.0126953125,70.9033203125,0)" xlink:href="#au"/><use transform="matrix(0.0126953125,0,0,0.0126953125,86.27734375,0)" xlink:href="#aE"/><use transform="matrix(0.0126953125,0,0,0.0126953125,92.57421875,0)" xlink:href="#ar"/></g><path d="M154 0v-137l495-537c165-179 249-281 249-418 0-156-121-253-280-253-170 0-278 110-278 278H158c0-264 200-443 465-443 266 0 455 183 455 416 0 161-73 288-336 568L416-179v12h687V0H154" id="aF"/><g id="h"><use transform="matrix(0.0126953125,0,0,0.0126953125,0,0)" xlink:href="#aF"/><use transform="matrix(0.0126953125,0,0,0.0126953125,15.8564453125,0)" xlink:href="#aB"/></g><g id="i"><use transform="matrix(0.0126953125,0,0,0.0126953125,0,0)" xlink:href="#aq"/><use transform="matrix(0.0126953125,0,0,0.0126953125,14.853515625,0)" xlink:href="#ap"/><use transform="matrix(0.0126953125,0,0,0.0126953125,21.150390625,0)" xlink:href="#ax"/><use transform="matrix(0.0126953125,0,0,0.0126953125,30.5068359375,0)" xlink:href="#aq"/><use transform="matrix(0.0126953125,0,0,0.0126953125,45.3603515625,0)" xlink:href="#au"/><use transform="matrix(0.0126953125,0,0,0.0126953125,60.734375,0)" xlink:href="#aE"/><use transform="matrix(0.0126953125,0,0,0.0126953125,67.03125,0)" xlink:href="#ar"/></g><path d="M635 20c-292 0-500-160-510-396h192c11 142 145 229 315 229 187 0 323-105 323-260 0-161-125-274-346-274H488v-165h121c174 0 294-100 294-254 0-148-104-245-266-245-152 0-291 85-297 230H157c8-234 222-395 484-395 278 0 448 188 448 400 0 168-95 291-247 336v12c190 31 301 169 301 357 0 244-216 425-508 425" id="aG"/><g id="j"><use transform="matrix(0.0126953125,0,0,0.0126953125,0,0)" xlink:href="#aG"/><use transform="matrix(0.0126953125,0,0,0.0126953125,16.0595703125,0)" xlink:href="#aB"/></g><g id="k"><use transform="matrix(0.0126953125,0,0,0.0126953125,0,0)" xlink:href="#aq"/><use transform="matrix(0.0126953125,0,0,0.0126953125,14.853515625,0)" xlink:href="#au"/><use transform="matrix(0.0126953125,0,0,0.0126953125,30.2275390625,0)" xlink:href="#aw"/><use transform="matrix(0.0126953125,0,0,0.0126953125,44.8271484375,0)" xlink:href="#av"/><use transform="matrix(0.0126953125,0,0,0.0126953125,60.7470703125,0)" xlink:href="#ax"/><use transform="matrix(0.0126953125,0,0,0.0126953125,70.53515625,0)" xlink:href="#aw"/><use transform="matrix(0.0126953125,0,0,0.0126953125,85.134765625,0)" xlink:href="#av"/><use transform="matrix(0.0126953125,0,0,0.0126953125,101.0546875,0)" xlink:href="#ar"/></g><path d="M120-303v-155l652-1032h231v1020h202v167h-202V0H821v-303H120zm702-167v-782h-12L323-482v12h499" id="aH"/><g id="l"><use transform="matrix(0.0126953125,0,0,0.0126953125,0,0)" xlink:href="#aH"/><use transform="matrix(0.0126953125,0,0,0.0126953125,16.7958984375,0)" xlink:href="#aB"/></g><g id="m"><use transform="matrix(0.0126953125,0,0,0.0126953125,0,0)" xlink:href="#ay"/><use transform="matrix(0.0126953125,0,0,0.0126953125,13.7236328125,0)" xlink:href="#aw"/><use transform="matrix(0.0126953125,0,0,0.0126953125,28.3232421875,0)" xlink:href="#aE"/><use transform="matrix(0.0126953125,0,0,0.0126953125,34.6201171875,0)" xlink:href="#ap"/><use transform="matrix(0.0126953125,0,0,0.0126953125,40.9169921875,0)" xlink:href="#ax"/></g><path d="M158 418v-1536h174v179h20c37-59 106-193 324-193 279 0 474 222 474 576 0 356-194 580-473 580-213 0-288-135-325-197h-14v591H158zm492-555c209 0 317-186 317-421 0-232-105-413-317-413-206 0-314 166-314 413 0 249 111 421 314 421" id="aI"/><g id="n"><use transform="matrix(0.0126953125,0,0,0.0126953125,0,0)" xlink:href="#ar"/><use transform="matrix(0.0126953125,0,0,0.0126953125,15.58984375,0)" xlink:href="#aI"/><use transform="matrix(0.0126953125,0,0,0.0126953125,31.509765625,0)" xlink:href="#aq"/><use transform="matrix(0.0126953125,0,0,0.0126953125,46.36328125,0)" xlink:href="#ap"/><use transform="matrix(0.0126953125,0,0,0.0126953125,52.66015625,0)" xlink:href="#ar"/><use transform="matrix(0.0126953125,0,0,0.0126953125,68.25,0)" xlink:href="#ao"/></g><g id="o"><use transform="matrix(0.0126953125,0,0,0.0126953125,0,0)" xlink:href="#ar"/><use transform="matrix(0.0126953125,0,0,0.0126953125,15.58984375,0)" xlink:href="#aI"/><use transform="matrix(0.0126953125,0,0,0.0126953125,31.509765625,0)" xlink:href="#aq"/><use transform="matrix(0.0126953125,0,0,0.0126953125,46.36328125,0)" xlink:href="#ap"/><use transform="matrix(0.0126953125,0,0,0.0126953125,52.66015625,0)" xlink:href="#ar"/><use transform="matrix(0.0126953125,0,0,0.0126953125,68.25,0)" xlink:href="#ao"/></g><path d="M226-283v-166h904v166H226zm0-434v-166h904v166H226" id="aJ"/><g id="p"><use transform="matrix(0.0126953125,0,0,0.0126953125,0,0)" xlink:href="#aJ"/><use transform="matrix(0.0126953125,0,0,0.0126953125,17.2021484375,0)" xlink:href="#aJ"/></g><use transform="matrix(0.0126953125,0,0,0.0126953125,0,0)" xlink:href="#aA" id="q"/><path d="M52 0l541-1490h220L1361 0h-200l-149-416H398L254 0H52zm404-582h497c-103-290-145-390-251-756-108 377-145 460-246 756" id="aK"/><g id="r"><use transform="matrix(0.0126953125,0,0,0.0126953125,0,0)" xlink:href="#aK"/><use transform="matrix(0.0126953125,0,0,0.0126953125,17.9384765625,0)" xlink:href="#ax"/><use transform="matrix(0.0126953125,0,0,0.0126953125,27.294921875,0)" xlink:href="#at"/><use transform="matrix(0.0126953125,0,0,0.0126953125,42.70703125,0)" xlink:href="#aw"/></g><g id="s"><use transform="matrix(0.0126953125,0,0,0.0126953125,0,0)" xlink:href="#aC"/><use transform="matrix(0.0126953125,0,0,0.0126953125,8.505859375,0)" xlink:href="#ax"/><use transform="matrix(0.0126953125,0,0,0.0126953125,18.7001953125,0)" xlink:href="#ap"/><use transform="matrix(0.0126953125,0,0,0.0126953125,24.9970703125,0)" xlink:href="#aw"/><use transform="matrix(0.0126953125,0,0,0.0126953125,39.5966796875,0)" xlink:href="#ao"/><use transform="matrix(0.0126953125,0,0,0.0126953125,54.9580078125,0)" xlink:href="#aD"/><use transform="matrix(0.0126953125,0,0,0.0126953125,70.9033203125,0)" xlink:href="#au"/><use transform="matrix(0.0126953125,0,0,0.0126953125,86.27734375,0)" xlink:href="#aE"/><use transform="matrix(0.0126953125,0,0,0.0126953125,92.57421875,0)" xlink:href="#ar"/></g><g id="t"><use transform="matrix(0.0126953125,0,0,0.0126953125,0,0)" xlink:href="#an"/><use transform="matrix(0.0126953125,0,0,0.0126953125,6.982421875,0)" xlink:href="#ao"/><use transform="matrix(0.0126953125,0,0,0.0126953125,22.34375,0)" xlink:href="#aD"/><use transform="matrix(0.0126953125,0,0,0.0126953125,38.2890625,0)" xlink:href="#ax"/><use transform="matrix(0.0126953125,0,0,0.0126953125,47.6455078125,0)" xlink:href="#at"/><use transform="matrix(0.0126953125,0,0,0.0126953125,62.8037109375,0)" xlink:href="#ay"/><use transform="matrix(0.0126953125,0,0,0.0126953125,76.52734375,0)" xlink:href="#at"/></g><path d="M677 24c-213 0-288-135-325-197h-20V0H158v-1490h180v551h14c37-59 106-193 324-193 279 0 474 222 474 576 0 356-194 580-473 580zm-27-161c209 0 317-186 317-421 0-232-105-413-317-413-206 0-314 166-314 413 0 249 111 421 314 421" id="aL"/><g id="u"><use transform="matrix(0.0126953125,0,0,0.0126953125,0,0)" xlink:href="#aL"/><use transform="matrix(0.0126953125,0,0,0.0126953125,16.173828125,0)" xlink:href="#aw"/><use transform="matrix(0.0126953125,0,0,0.0126953125,30.7734375,0)" xlink:href="#ay"/><use transform="matrix(0.0126953125,0,0,0.0126953125,44.4970703125,0)" xlink:href="#at"/><use transform="matrix(0.0126953125,0,0,0.0126953125,59.6552734375,0)" xlink:href="#az"/></g><g id="v"><use transform="matrix(0.0126953125,0,0,0.0126953125,0,0)" xlink:href="#aL"/><use transform="matrix(0.0126953125,0,0,0.0126953125,16.173828125,0)" xlink:href="#aw"/><use transform="matrix(0.0126953125,0,0,0.0126953125,30.7734375,0)" xlink:href="#ay"/><use transform="matrix(0.0126953125,0,0,0.0126953125,44.4970703125,0)" xlink:href="#at"/></g><use transform="matrix(0.0126953125,0,0,0.0126953125,0,0)" xlink:href="#aK" id="w"/><use transform="matrix(0.0126953125,0,0,0.0126953125,0,0)" xlink:href="#aJ" id="x"/><path d="M218-607c0-325 108-727 258-974h175c-155 315-250 682-250 974 0 265 78 531 250 886H476C306-10 218-315 218-607" id="aM"/><g id="y"><use transform="matrix(0.0126953125,0,0,0.0126953125,0,0)" xlink:href="#aM"/><use transform="matrix(0.0126953125,0,0,0.0126953125,9.4833984375,0)" xlink:href="#aL"/><use transform="matrix(0.0126953125,0,0,0.0126953125,25.6572265625,0)" xlink:href="#aw"/><use transform="matrix(0.0126953125,0,0,0.0126953125,40.2568359375,0)" xlink:href="#ay"/><use transform="matrix(0.0126953125,0,0,0.0126953125,53.98046875,0)" xlink:href="#at"/></g><path d="M441-652l13-317-268 171-72-126 282-146-282-146 72-128 268 171-13-317h144l-12 317 267-171 72 128-282 146 282 146-72 126-267-171 12 317H441" id="aN"/><use transform="matrix(0.0126953125,0,0,0.0126953125,0,0)" xlink:href="#aN" id="z"/><g id="A"><use transform="matrix(0.0126953125,0,0,0.0126953125,0,0)" xlink:href="#aw"/><use transform="matrix(0.0126953125,0,0,0.0126953125,14.599609375,0)" xlink:href="#aE"/><use transform="matrix(0.0126953125,0,0,0.0126953125,21.27734375,0)" xlink:href="#aC"/><use transform="matrix(0.0126953125,0,0,0.0126953125,29.783203125,0)" xlink:href="#au"/><use transform="matrix(0.0126953125,0,0,0.0126953125,45.1572265625,0)" xlink:href="#ax"/><use transform="matrix(0.0126953125,0,0,0.0126953125,54.9453125,0)" xlink:href="#aw"/><use transform="matrix(0.0126953125,0,0,0.0126953125,69.544921875,0)" xlink:href="#aB"/></g><path d="M692-1560L212 224H46l480-1784h166" id="aO"/><use transform="matrix(0.0126953125,0,0,0.0126953125,0,0)" xlink:href="#aO" id="B"/><use transform="matrix(0.0126953125,0,0,0.0126953125,0,0)" xlink:href="#aF" id="C"/><path d="M232-923l-22-567h194l-22 567H232zm340 0l-22-567h194l-22 567H572" id="aP"/><path d="M180 0v-1490h908v168H370v486h669v168H370v500h727V0H180" id="aQ"/><g id="D"><use transform="matrix(0.0126953125,0,0,0.0126953125,0,0)" xlink:href="#aP"/><use transform="matrix(0.0126953125,0,0,0.0126953125,12.111328125,0)" xlink:href="#aQ"/><use transform="matrix(0.0126953125,0,0,0.0126953125,27.7392578125,0)" xlink:href="#aE"/></g><g id="E"><use transform="matrix(0.0126953125,0,0,0.0126953125,0,0)" xlink:href="#at"/><use transform="matrix(0.0126953125,0,0,0.0126953125,15.158203125,0)" xlink:href="#ay"/><use transform="matrix(0.0126953125,0,0,0.0126953125,28.8818359375,0)" xlink:href="#az"/></g><path d="M128 359l88-567h206L266 359H128" id="aR"/><g id="F"><use transform="matrix(0.0126953125,0,0,0.0126953125,0,0)" xlink:href="#aP"/><use transform="matrix(0.0126953125,0,0,0.0126953125,9.978515625,0)" xlink:href="#aR"/></g><use transform="matrix(0.0126953125,0,0,0.0126953125,0,0)" xlink:href="#aK" id="G"/><path d="M600 0L52-1490h200c166 485 304 806 458 1336 156-533 285-846 449-1336h202L819 0H600" id="aS"/><use transform="matrix(0.01953125,0,0,0.01953125,0,0)" xlink:href="#aS" id="H"/><path d="M180 0v-1490h901v168H370v510h643v168H370V0H180" id="aT"/><use transform="matrix(0.01953125,0,0,0.01953125,0,0)" xlink:href="#aT" id="I"/><g id="J"><use transform="matrix(0.0126953125,0,0,0.0126953125,0,0)" xlink:href="#aq"/><use transform="matrix(0.0126953125,0,0,0.0126953125,14.853515625,0)" xlink:href="#ap"/><use transform="matrix(0.0126953125,0,0,0.0126953125,21.150390625,0)" xlink:href="#ax"/><use transform="matrix(0.0126953125,0,0,0.0126953125,30.5068359375,0)" xlink:href="#aq"/><use transform="matrix(0.0126953125,0,0,0.0126953125,45.3603515625,0)" xlink:href="#au"/><use transform="matrix(0.0126953125,0,0,0.0126953125,60.734375,0)" xlink:href="#aE"/><use transform="matrix(0.0126953125,0,0,0.0126953125,67.03125,0)" xlink:href="#ar"/></g><g id="K"><use transform="matrix(0.0126953125,0,0,0.0126953125,0,0)" xlink:href="#an"/><use transform="matrix(0.0126953125,0,0,0.0126953125,6.982421875,0)" xlink:href="#ao"/><use transform="matrix(0.0126953125,0,0,0.0126953125,22.34375,0)" xlink:href="#aD"/><use transform="matrix(0.0126953125,0,0,0.0126953125,38.2890625,0)" xlink:href="#ax"/><use transform="matrix(0.0126953125,0,0,0.0126953125,47.6455078125,0)" xlink:href="#at"/><use transform="matrix(0.0126953125,0,0,0.0126953125,62.8037109375,0)" xlink:href="#ay"/><use transform="matrix(0.0126953125,0,0,0.0126953125,76.52734375,0)" xlink:href="#at"/></g><g id="L"><use transform="matrix(0.0126953125,0,0,0.0126953125,0,0)" xlink:href="#ax"/><use transform="matrix(0.0126953125,0,0,0.0126953125,9.7880859375,0)" xlink:href="#aw"/><use transform="matrix(0.0126953125,0,0,0.0126953125,24.3876953125,0)" xlink:href="#av"/><use transform="matrix(0.0126953125,0,0,0.0126953125,40.3076171875,0)" xlink:href="#ap"/><use transform="matrix(0.0126953125,0,0,0.0126953125,46.6044921875,0)" xlink:href="#ar"/><use transform="matrix(0.0126953125,0,0,0.0126953125,62.1943359375,0)" xlink:href="#az"/></g><g id="M"><use transform="matrix(0.0126953125,0,0,0.0126953125,0,0)" xlink:href="#ax"/><use transform="matrix(0.0126953125,0,0,0.0126953125,9.7880859375,0)" xlink:href="#aw"/><use transform="matrix(0.0126953125,0,0,0.0126953125,24.3876953125,0)" xlink:href="#av"/><use transform="matrix(0.0126953125,0,0,0.0126953125,40.3076171875,0)" xlink:href="#ap"/><use transform="matrix(0.0126953125,0,0,0.0126953125,46.6044921875,0)" xlink:href="#ar"/></g><path d="M180 0v-1490h510c348 0 508 209 508 474 0 266-160 477-507 477H370V0H180zm190-706h312c236 0 327-133 327-310 0-176-91-307-329-307H370v617" id="aU"/><g id="N"><use transform="matrix(0.0126953125,0,0,0.0126953125,0,0)" xlink:href="#aU"/><use transform="matrix(0.0126953125,0,0,0.0126953125,16.60546875,0)" xlink:href="#an"/></g><path d="M82-814l301-629h199l301 629H706l-217-471h-13L261-814H82" id="aV"/><g id="O"><use transform="matrix(0.0126953125,0,0,0.0126953125,0,0)" xlink:href="#ax"/><use transform="matrix(0.0126953125,0,0,0.0126953125,9.7880859375,0)" xlink:href="#aw"/><use transform="matrix(0.0126953125,0,0,0.0126953125,24.3876953125,0)" xlink:href="#av"/><use transform="matrix(0.0126953125,0,0,0.0126953125,40.3076171875,0)" xlink:href="#ap"/><use transform="matrix(0.0126953125,0,0,0.0126953125,46.6044921875,0)" xlink:href="#ar"/><use transform="matrix(0.0126953125,0,0,0.0126953125,62.1943359375,0)" xlink:href="#aV"/><use transform="matrix(0.0126953125,0,0,0.0126953125,74.4453125,0)" xlink:href="#aF"/></g><use transform="matrix(0.0126953125,0,0,0.0126953125,0,0)" xlink:href="#aG" id="P"/><path d="M789 20c-398 0-667-293-667-764 0-473 273-766 655-766 315 0 558 198 612 487h-196c-61-191-204-311-415-311-262 0-471 207-471 590 0 380 208 588 482 588 249 0 420-165 425-427H828v-166h572v163c0 370-256 606-611 606" id="aW"/><g id="Q"><use transform="matrix(0.0126953125,0,0,0.0126953125,0,0)" xlink:href="#aW"/><use transform="matrix(0.0126953125,0,0,0.0126953125,19.3984375,0)" xlink:href="#ax"/><use transform="matrix(0.0126953125,0,0,0.0126953125,29.1865234375,0)" xlink:href="#aw"/><use transform="matrix(0.0126953125,0,0,0.0126953125,43.7861328125,0)" xlink:href="#aq"/><use transform="matrix(0.0126953125,0,0,0.0126953125,58.6396484375,0)" xlink:href="#ap"/><use transform="matrix(0.0126953125,0,0,0.0126953125,64.9365234375,0)" xlink:href="#aw"/><use transform="matrix(0.0126953125,0,0,0.0126953125,79.5361328125,0)" xlink:href="#ay"/></g><g id="R"><use transform="matrix(0.0126953125,0,0,0.0126953125,0,0)" xlink:href="#aI"/><use transform="matrix(0.0126953125,0,0,0.0126953125,15.919921875,0)" xlink:href="#ar"/><use transform="matrix(0.0126953125,0,0,0.0126953125,31.509765625,0)" xlink:href="#ax"/></g><g id="S"><use transform="matrix(0.0126953125,0,0,0.0126953125,0,0)" xlink:href="#au"/><use transform="matrix(0.0126953125,0,0,0.0126953125,15.3740234375,0)" xlink:href="#ay"/><use transform="matrix(0.0126953125,0,0,0.0126953125,29.09765625,0)" xlink:href="#aw"/><use transform="matrix(0.0126953125,0,0,0.0126953125,43.697265625,0)" xlink:href="#ax"/></g><g id="T"><use transform="matrix(0.0126953125,0,0,0.0126953125,0,0)" xlink:href="#at"/><use transform="matrix(0.0126953125,0,0,0.0126953125,15.158203125,0)" xlink:href="#aE"/></g><path d="M158 0v-1118h175l1 205c55-151 181-225 313-225 147 0 245 90 285 228 53-141 190-228 352-228 194 0 352 125 352 384V0h-181v-749c0-161-105-225-225-225-151 0-243 103-243 244V0H807v-767c0-124-93-207-219-207-131 0-250 92-250 270V0H158" id="aX"/><g id="U"><use transform="matrix(0.0126953125,0,0,0.0126953125,0,0)" xlink:href="#aI"/><use transform="matrix(0.0126953125,0,0,0.0126953125,15.919921875,0)" xlink:href="#ax"/><use transform="matrix(0.0126953125,0,0,0.0126953125,25.2763671875,0)" xlink:href="#ar"/><use transform="matrix(0.0126953125,0,0,0.0126953125,40.8662109375,0)" xlink:href="#aD"/><use transform="matrix(0.0126953125,0,0,0.0126953125,56.8115234375,0)" xlink:href="#ax"/><use transform="matrix(0.0126953125,0,0,0.0126953125,66.599609375,0)" xlink:href="#aw"/><use transform="matrix(0.0126953125,0,0,0.0126953125,81.19921875,0)" xlink:href="#aX"/><use transform="matrix(0.0126953125,0,0,0.0126953125,103.974609375,0)" xlink:href="#aw"/></g><g id="V"><use transform="matrix(0.0126953125,0,0,0.0126953125,0,0)" xlink:href="#aL"/><use transform="matrix(0.0126953125,0,0,0.0126953125,16.173828125,0)" xlink:href="#aw"/><use transform="matrix(0.0126953125,0,0,0.0126953125,30.7734375,0)" xlink:href="#ay"/><use transform="matrix(0.0126953125,0,0,0.0126953125,44.4970703125,0)" xlink:href="#at"/></g><path d="M1181-520L237-44v-194l712-338v-12L237-926v-196l944 476v126" id="aY"/><g id="W"><use transform="matrix(0.0126953125,0,0,0.0126953125,0,0)" xlink:href="#aY"/><use transform="matrix(0.0126953125,0,0,0.0126953125,17.2021484375,0)" xlink:href="#aJ"/></g><path d="M646 20c-332 0-524-278-524-764 0-483 194-766 524-766s524 283 524 766c0 485-191 764-524 764zm0-166c218 0 341-220 341-598 0-380-123-601-341-601s-341 222-341 601c0 378 123 598 341 598" id="aZ"/><use transform="matrix(0.0126953125,0,0,0.0126953125,0,0)" xlink:href="#aZ" id="X"/><path d="M580 20c-295 0-476-179-476-409 0-189 123-290 294-416-104-125-173-226-173-362 0-197 144-337 365-337 224 0 362 144 362 321 0 185-174 312-306 405l319 387c38-75 61-165 61-267h173c0 208-62 332-120 406L1287 0h-217L967-124C868-27 716 20 580 20zm279-273L507-675l-51 38c-123 91-167 162-167 254 0 147 113 246 278 246 107 0 210-41 292-116zM538-908l97-72c54-40 136-101 136-206 0-95-68-163-176-163-113 0-189 74-189 181 0 90 53 164 132 260" id="ba"/><g id="Y"><use transform="matrix(0.0126953125,0,0,0.0126953125,0,0)" xlink:href="#ba"/><use transform="matrix(0.0126953125,0,0,0.0126953125,16.7451171875,0)" xlink:href="#ba"/></g><g id="Z"><use transform="matrix(0.0126953125,0,0,0.0126953125,0,0)" xlink:href="#aw"/><use transform="matrix(0.0126953125,0,0,0.0126953125,14.599609375,0)" xlink:href="#aE"/><use transform="matrix(0.0126953125,0,0,0.0126953125,21.27734375,0)" xlink:href="#aC"/><use transform="matrix(0.0126953125,0,0,0.0126953125,29.783203125,0)" xlink:href="#au"/><use transform="matrix(0.0126953125,0,0,0.0126953125,45.1572265625,0)" xlink:href="#ax"/><use transform="matrix(0.0126953125,0,0,0.0126953125,54.9453125,0)" xlink:href="#aw"/></g><use transform="matrix(0.0126953125,0,0,0.0126953125,0,0)" xlink:href="#aZ" id="aa"/><path d="M180 0v-1490h224l606 953c40 63 108 177 176 312-27-437-7-821-13-1265h190V0h-226C860-448 622-778 356-1262c27 476 11 792 15 1262H180" id="bb"/><g id="ab"><use transform="matrix(0.0126953125,0,0,0.0126953125,0,0)" xlink:href="#bb"/><use transform="matrix(0.0126953125,0,0,0.0126953125,19.5888671875,0)" xlink:href="#ar"/></g><g id="ac"><use transform="matrix(0.0126953125,0,0,0.0126953125,0,0)" xlink:href="#aI"/><use transform="matrix(0.0126953125,0,0,0.0126953125,15.919921875,0)" xlink:href="#au"/><use transform="matrix(0.0126953125,0,0,0.0126953125,31.2939453125,0)" xlink:href="#at"/><use transform="matrix(0.0126953125,0,0,0.0126953125,46.4521484375,0)" xlink:href="#av"/><use transform="matrix(0.0126953125,0,0,0.0126953125,62.3720703125,0)" xlink:href="#at"/></g><g id="ad"><use transform="matrix(0.0126953125,0,0,0.0126953125,0,0)" xlink:href="#an"/><use transform="matrix(0.0126953125,0,0,0.0126953125,6.982421875,0)" xlink:href="#ao"/><use transform="matrix(0.0126953125,0,0,0.0126953125,22.34375,0)" xlink:href="#aD"/><use transform="matrix(0.0126953125,0,0,0.0126953125,38.2890625,0)" xlink:href="#ax"/><use transform="matrix(0.0126953125,0,0,0.0126953125,47.6455078125,0)" xlink:href="#at"/><use transform="matrix(0.0126953125,0,0,0.0126953125,62.8037109375,0)" xlink:href="#ay"/><use transform="matrix(0.0126953125,0,0,0.0126953125,76.52734375,0)" xlink:href="#aw"/><use transform="matrix(0.0126953125,0,0,0.0126953125,91.126953125,0)" xlink:href="#ax"/></g><g id="ae"><use transform="matrix(0.0126953125,0,0,0.0126953125,0,0)" xlink:href="#ao"/><use transform="matrix(0.0126953125,0,0,0.0126953125,15.361328125,0)" xlink:href="#au"/><use transform="matrix(0.0126953125,0,0,0.0126953125,30.7353515625,0)" xlink:href="#aX"/><use transform="matrix(0.0126953125,0,0,0.0126953125,53.5107421875,0)" xlink:href="#at"/><use transform="matrix(0.0126953125,0,0,0.0126953125,68.6689453125,0)" xlink:href="#ax"/><use transform="matrix(0.0126953125,0,0,0.0126953125,78.025390625,0)" xlink:href="#ar"/><use transform="matrix(0.0126953125,0,0,0.0126953125,93.615234375,0)" xlink:href="#ay"/></g><path d="M481 0L54-1118h197c107 314 236 620 325 951 87-331 217-637 324-951h197L670 0H481" id="bc"/><g id="af"><use transform="matrix(0.0126953125,0,0,0.0126953125,0,0)" xlink:href="#ao"/><use transform="matrix(0.0126953125,0,0,0.0126953125,15.361328125,0)" xlink:href="#at"/><use transform="matrix(0.0126953125,0,0,0.0126953125,30.51953125,0)" xlink:href="#aD"/><use transform="matrix(0.0126953125,0,0,0.0126953125,46.46484375,0)" xlink:href="#aw"/><use transform="matrix(0.0126953125,0,0,0.0126953125,61.064453125,0)" xlink:href="#aC"/><use transform="matrix(0.0126953125,0,0,0.0126953125,69.5703125,0)" xlink:href="#ap"/><use transform="matrix(0.0126953125,0,0,0.0126953125,75.8671875,0)" xlink:href="#bc"/><use transform="matrix(0.0126953125,0,0,0.0126953125,89.9716796875,0)" xlink:href="#ar"/><use transform="matrix(0.0126953125,0,0,0.0126953125,105.5615234375,0)" xlink:href="#ay"/></g><g id="ag"><use transform="matrix(0.0126953125,0,0,0.0126953125,0,0)" xlink:href="#ax"/><use transform="matrix(0.0126953125,0,0,0.0126953125,9.7880859375,0)" xlink:href="#aw"/><use transform="matrix(0.0126953125,0,0,0.0126953125,24.3876953125,0)" xlink:href="#av"/><use transform="matrix(0.0126953125,0,0,0.0126953125,40.3076171875,0)" xlink:href="#ap"/><use transform="matrix(0.0126953125,0,0,0.0126953125,46.6044921875,0)" xlink:href="#ar"/></g><g id="ah"><use transform="matrix(0.0126953125,0,0,0.0126953125,0,0)" xlink:href="#ap"/><use transform="matrix(0.0126953125,0,0,0.0126953125,6.296875,0)" xlink:href="#ao"/><use transform="matrix(0.0126953125,0,0,0.0126953125,21.658203125,0)" xlink:href="#aD"/><use transform="matrix(0.0126953125,0,0,0.0126953125,37.603515625,0)" xlink:href="#ax"/><use transform="matrix(0.0126953125,0,0,0.0126953125,46.9599609375,0)" xlink:href="#at"/><use transform="matrix(0.0126953125,0,0,0.0126953125,62.1181640625,0)" xlink:href="#ay"/><use transform="matrix(0.0126953125,0,0,0.0126953125,75.841796875,0)" xlink:href="#at"/></g><g id="ai"><use transform="matrix(0.0126953125,0,0,0.0126953125,0,0)" xlink:href="#aw"/><use transform="matrix(0.0126953125,0,0,0.0126953125,14.599609375,0)" xlink:href="#aE"/><use transform="matrix(0.0126953125,0,0,0.0126953125,21.27734375,0)" xlink:href="#aC"/><use transform="matrix(0.0126953125,0,0,0.0126953125,29.783203125,0)" xlink:href="#au"/><use transform="matrix(0.0126953125,0,0,0.0126953125,45.1572265625,0)" xlink:href="#ax"/><use transform="matrix(0.0126953125,0,0,0.0126953125,54.9453125,0)" xlink:href="#aw"/><use transform="matrix(0.0126953125,0,0,0.0126953125,69.544921875,0)" xlink:href="#az"/></g><g id="aj"><use transform="matrix(0.0126953125,0,0,0.0126953125,0,0)" xlink:href="#aw"/><use transform="matrix(0.0126953125,0,0,0.0126953125,14.599609375,0)" xlink:href="#aE"/><use transform="matrix(0.0126953125,0,0,0.0126953125,21.27734375,0)" xlink:href="#aC"/><use transform="matrix(0.0126953125,0,0,0.0126953125,29.783203125,0)" xlink:href="#au"/><use transform="matrix(0.0126953125,0,0,0.0126953125,45.1572265625,0)" xlink:href="#ax"/><use transform="matrix(0.0126953125,0,0,0.0126953125,54.9453125,0)" xlink:href="#aw"/></g><g id="ak"><use transform="matrix(0.0126953125,0,0,0.0126953125,0,0)" xlink:href="#aq"/><use transform="matrix(0.0126953125,0,0,0.0126953125,14.853515625,0)" xlink:href="#au"/><use transform="matrix(0.0126953125,0,0,0.0126953125,30.2275390625,0)" xlink:href="#aw"/><use transform="matrix(0.0126953125,0,0,0.0126953125,44.8271484375,0)" xlink:href="#av"/><use transform="matrix(0.0126953125,0,0,0.0126953125,60.7470703125,0)" xlink:href="#ax"/><use transform="matrix(0.0126953125,0,0,0.0126953125,70.53515625,0)" xlink:href="#aw"/><use transform="matrix(0.0126953125,0,0,0.0126953125,85.134765625,0)" xlink:href="#av"/><use transform="matrix(0.0126953125,0,0,0.0126953125,101.0546875,0)" xlink:href="#ar"/></g><g id="al"><use transform="matrix(0.0126953125,0,0,0.0126953125,0,0)" xlink:href="#aw"/><use transform="matrix(0.0126953125,0,0,0.0126953125,14.599609375,0)" xlink:href="#aE"/><use transform="matrix(0.0126953125,0,0,0.0126953125,21.27734375,0)" xlink:href="#aC"/><use transform="matrix(0.0126953125,0,0,0.0126953125,29.783203125,0)" xlink:href="#au"/><use transform="matrix(0.0126953125,0,0,0.0126953125,45.1572265625,0)" xlink:href="#ax"/><use transform="matrix(0.0126953125,0,0,0.0126953125,54.9453125,0)" xlink:href="#aw"/><use transform="matrix(0.0126953125,0,0,0.0126953125,69.544921875,0)" xlink:href="#aB"/></g><g id="am"><use transform="matrix(0.0126953125,0,0,0.0126953125,0,0)" xlink:href="#aT"/><use transform="matrix(0.0126953125,0,0,0.0126953125,15.3486328125,0)" xlink:href="#ap"/><use transform="matrix(0.0126953125,0,0,0.0126953125,21.6455078125,0)" xlink:href="#ao"/></g></defs></g></svg>